G04 Layer_Color=8150272*
%FSLAX25Y25*%
%MOIN*%
G70*
G01*
G75*
%ADD13C,0.00800*%
%ADD14O,0.16800X0.08800*%
%ADD15C,0.08800*%
D13*
X403701Y777402D02*
D03*
X777402Y777402D02*
D03*
X777402Y403701D02*
D03*
X403701Y403701D02*
D03*
D14*
X403701Y763701D02*
D03*
X403701Y753701D02*
D03*
X403701Y743701D02*
D03*
X403701Y733701D02*
D03*
X403701Y723701D02*
D03*
X403701Y713701D02*
D03*
X403701Y703701D02*
D03*
X403701Y693701D02*
D03*
X403701Y683701D02*
D03*
X403701Y673701D02*
D03*
X403701Y663701D02*
D03*
X403701Y653701D02*
D03*
X403701Y643701D02*
D03*
X403701Y633701D02*
D03*
X403701Y623701D02*
D03*
X403701Y613701D02*
D03*
X403701Y603701D02*
D03*
X403701Y593701D02*
D03*
X403701Y583701D02*
D03*
X403701Y573701D02*
D03*
X403701Y563701D02*
D03*
X403701Y553701D02*
D03*
X403701Y543701D02*
D03*
X403701Y533701D02*
D03*
X403701Y523701D02*
D03*
X403701Y513701D02*
D03*
X403701Y503701D02*
D03*
X403701Y493701D02*
D03*
X403701Y483701D02*
D03*
X403701Y473701D02*
D03*
X403701Y463701D02*
D03*
X403701Y453701D02*
D03*
X403701Y443701D02*
D03*
X403701Y433701D02*
D03*
X403701Y423701D02*
D03*
X403701Y413701D02*
D03*
X775701Y763701D02*
D03*
X775701Y753701D02*
D03*
X775701Y743701D02*
D03*
X775701Y733701D02*
D03*
X775701Y723701D02*
D03*
X775701Y713701D02*
D03*
X775701Y703701D02*
D03*
X775701Y693701D02*
D03*
X775701Y683701D02*
D03*
X775701Y673701D02*
D03*
X775701Y663701D02*
D03*
X775701Y653701D02*
D03*
X775701Y643701D02*
D03*
X775701Y633701D02*
D03*
X775701Y623701D02*
D03*
X775701Y613701D02*
D03*
X775701Y603701D02*
D03*
X775701Y593701D02*
D03*
X775701Y583701D02*
D03*
X775701Y573701D02*
D03*
X775701Y563701D02*
D03*
X775701Y553701D02*
D03*
X775701Y543701D02*
D03*
X775701Y533701D02*
D03*
X775701Y523701D02*
D03*
X775701Y513701D02*
D03*
X775701Y493701D02*
D03*
X775701Y483701D02*
D03*
X775701Y473701D02*
D03*
X775701Y463701D02*
D03*
X775701Y453701D02*
D03*
X775701Y443701D02*
D03*
X775701Y433701D02*
D03*
X775701Y423701D02*
D03*
X775701Y413701D02*
D03*
X775701Y503701D02*
D03*
D15*
X423701Y413701D02*
D03*
X433701Y413701D02*
D03*
X443701Y413701D02*
D03*
X453701Y413701D02*
D03*
X463701Y413701D02*
D03*
X473701Y413701D02*
D03*
X483701Y413701D02*
D03*
X493701Y413701D02*
D03*
X503701Y413701D02*
D03*
X513701Y413701D02*
D03*
D03*
X623701Y413701D02*
D03*
D03*
X613701Y413701D02*
D03*
X603701Y413701D02*
D03*
X593701Y413701D02*
D03*
X583701Y413701D02*
D03*
X573701Y413701D02*
D03*
X563701Y413701D02*
D03*
X553701Y413701D02*
D03*
X543701Y413701D02*
D03*
X533701Y413701D02*
D03*
X523701Y413701D02*
D03*
X733701Y413701D02*
D03*
D03*
X723701Y413701D02*
D03*
X713701Y413701D02*
D03*
X703701Y413701D02*
D03*
X693701Y413701D02*
D03*
X683701Y413701D02*
D03*
X673701Y413701D02*
D03*
X663701Y413701D02*
D03*
X653701Y413701D02*
D03*
X643701Y413701D02*
D03*
X633701Y413701D02*
D03*
X743701Y413701D02*
D03*
D03*
X753701Y413701D02*
D03*
X753701Y423701D02*
D03*
X743701Y423701D02*
D03*
D03*
X633701Y423701D02*
D03*
X643701Y423701D02*
D03*
X653701Y423701D02*
D03*
X663701Y423701D02*
D03*
X673701Y423701D02*
D03*
X683701Y423701D02*
D03*
X693701Y423701D02*
D03*
X703701Y423701D02*
D03*
X713701Y423701D02*
D03*
X723701Y423701D02*
D03*
X733701Y423701D02*
D03*
D03*
X523701Y423701D02*
D03*
X533701Y423701D02*
D03*
X543701Y423701D02*
D03*
X553701Y423701D02*
D03*
X563701Y423701D02*
D03*
X573701Y423701D02*
D03*
X583701Y423701D02*
D03*
X593701Y423701D02*
D03*
X603701Y423701D02*
D03*
X613701Y423701D02*
D03*
X623701Y423701D02*
D03*
D03*
X513701Y423701D02*
D03*
D03*
X503701Y423701D02*
D03*
X493701Y423701D02*
D03*
X483701Y423701D02*
D03*
X473701Y423701D02*
D03*
X463701Y423701D02*
D03*
X453701Y423701D02*
D03*
X443701Y423701D02*
D03*
X433701Y423701D02*
D03*
X423701Y423701D02*
D03*
X753701Y433701D02*
D03*
X743701Y433701D02*
D03*
D03*
X633701Y433701D02*
D03*
X643701Y433701D02*
D03*
X653701Y433701D02*
D03*
X663701Y433701D02*
D03*
X673701Y433701D02*
D03*
X683701Y433701D02*
D03*
X693701Y433701D02*
D03*
X703701Y433701D02*
D03*
X713701Y433701D02*
D03*
X723701Y433701D02*
D03*
X733701Y433701D02*
D03*
D03*
X523701Y433701D02*
D03*
X533701Y433701D02*
D03*
X543701Y433701D02*
D03*
X553701Y433701D02*
D03*
X563701Y433701D02*
D03*
X573701Y433701D02*
D03*
X583701Y433701D02*
D03*
X593701Y433701D02*
D03*
X603701Y433701D02*
D03*
X613701Y433701D02*
D03*
X623701Y433701D02*
D03*
D03*
X513701Y433701D02*
D03*
D03*
X503701Y433701D02*
D03*
X493701Y433701D02*
D03*
X483701Y433701D02*
D03*
X473701Y433701D02*
D03*
X463701Y433701D02*
D03*
X453701Y433701D02*
D03*
X443701Y433701D02*
D03*
X433701Y433701D02*
D03*
X423701Y433701D02*
D03*
X753701Y443701D02*
D03*
X743701Y443701D02*
D03*
D03*
X633701Y443701D02*
D03*
X643701Y443701D02*
D03*
X653701Y443701D02*
D03*
X663701Y443701D02*
D03*
X673701Y443701D02*
D03*
X683701Y443701D02*
D03*
X693701Y443701D02*
D03*
X703701Y443701D02*
D03*
X713701Y443701D02*
D03*
X723701Y443701D02*
D03*
X733701Y443701D02*
D03*
D03*
X523701Y443701D02*
D03*
X533701Y443701D02*
D03*
X543701Y443701D02*
D03*
X553701Y443701D02*
D03*
X563701Y443701D02*
D03*
X573701Y443701D02*
D03*
X583701Y443701D02*
D03*
X593701Y443701D02*
D03*
X603701Y443701D02*
D03*
X613701Y443701D02*
D03*
X623701Y443701D02*
D03*
D03*
X513701Y443701D02*
D03*
D03*
X503701Y443701D02*
D03*
X493701Y443701D02*
D03*
X483701Y443701D02*
D03*
X473701Y443701D02*
D03*
X463701Y443701D02*
D03*
X453701Y443701D02*
D03*
X443701Y443701D02*
D03*
X433701Y443701D02*
D03*
X423701Y443701D02*
D03*
X753701Y453701D02*
D03*
X743701Y453701D02*
D03*
D03*
X633701Y453701D02*
D03*
X643701Y453701D02*
D03*
X653701Y453701D02*
D03*
X663701Y453701D02*
D03*
X673701Y453701D02*
D03*
X683701Y453701D02*
D03*
X693701Y453701D02*
D03*
X703701Y453701D02*
D03*
X713701Y453701D02*
D03*
X723701Y453701D02*
D03*
X733701Y453701D02*
D03*
D03*
X523701Y453701D02*
D03*
X533701Y453701D02*
D03*
X543701Y453701D02*
D03*
X553701Y453701D02*
D03*
X563701Y453701D02*
D03*
X573701Y453701D02*
D03*
X583701Y453701D02*
D03*
X593701Y453701D02*
D03*
X603701Y453701D02*
D03*
X613701Y453701D02*
D03*
X623701Y453701D02*
D03*
D03*
X513701Y453701D02*
D03*
D03*
X503701Y453701D02*
D03*
X493701Y453701D02*
D03*
X483701Y453701D02*
D03*
X473701Y453701D02*
D03*
X463701Y453701D02*
D03*
X453701Y453701D02*
D03*
X443701Y453701D02*
D03*
X433701Y453701D02*
D03*
X423701Y453701D02*
D03*
X753701Y463701D02*
D03*
X743701Y463701D02*
D03*
D03*
X633701Y463701D02*
D03*
X643701Y463701D02*
D03*
X653701Y463701D02*
D03*
X663701Y463701D02*
D03*
X673701Y463701D02*
D03*
X683701Y463701D02*
D03*
X693701Y463701D02*
D03*
X703701Y463701D02*
D03*
X713701Y463701D02*
D03*
X723701Y463701D02*
D03*
X733701Y463701D02*
D03*
D03*
X523701Y463701D02*
D03*
X533701Y463701D02*
D03*
X543701Y463701D02*
D03*
X553701Y463701D02*
D03*
X563701Y463701D02*
D03*
X573701Y463701D02*
D03*
X583701Y463701D02*
D03*
X593701Y463701D02*
D03*
X603701Y463701D02*
D03*
X613701Y463701D02*
D03*
X623701Y463701D02*
D03*
D03*
X513701Y463701D02*
D03*
D03*
X503701Y463701D02*
D03*
X493701Y463701D02*
D03*
X483701Y463701D02*
D03*
X473701Y463701D02*
D03*
X463701Y463701D02*
D03*
X453701Y463701D02*
D03*
X443701Y463701D02*
D03*
X433701Y463701D02*
D03*
X423701Y463701D02*
D03*
X753701Y473701D02*
D03*
X743701Y473701D02*
D03*
D03*
X633701Y473701D02*
D03*
X643701Y473701D02*
D03*
X653701Y473701D02*
D03*
X663701Y473701D02*
D03*
X673701Y473701D02*
D03*
X683701Y473701D02*
D03*
X693701Y473701D02*
D03*
X703701Y473701D02*
D03*
X713701Y473701D02*
D03*
X723701Y473701D02*
D03*
X733701Y473701D02*
D03*
D03*
X523701Y473701D02*
D03*
X533701Y473701D02*
D03*
X543701Y473701D02*
D03*
X553701Y473701D02*
D03*
X563701Y473701D02*
D03*
X573701Y473701D02*
D03*
X583701Y473701D02*
D03*
X593701Y473701D02*
D03*
X603701Y473701D02*
D03*
X613701Y473701D02*
D03*
X623701Y473701D02*
D03*
D03*
X513701Y473701D02*
D03*
D03*
X503701Y473701D02*
D03*
X493701Y473701D02*
D03*
X483701Y473701D02*
D03*
X473701Y473701D02*
D03*
X463701Y473701D02*
D03*
X453701Y473701D02*
D03*
X443701Y473701D02*
D03*
X433701Y473701D02*
D03*
X423701Y473701D02*
D03*
X753701Y483701D02*
D03*
X743701Y483701D02*
D03*
D03*
X633701Y483701D02*
D03*
X643701Y483701D02*
D03*
X653701Y483701D02*
D03*
X663701Y483701D02*
D03*
X673701Y483701D02*
D03*
X683701Y483701D02*
D03*
X693701Y483701D02*
D03*
X703701Y483701D02*
D03*
X713701Y483701D02*
D03*
X723701Y483701D02*
D03*
X733701Y483701D02*
D03*
D03*
X523701Y483701D02*
D03*
X533701Y483701D02*
D03*
X543701Y483701D02*
D03*
X553701Y483701D02*
D03*
X563701Y483701D02*
D03*
X573701Y483701D02*
D03*
X583701Y483701D02*
D03*
X593701Y483701D02*
D03*
X603701Y483701D02*
D03*
X613701Y483701D02*
D03*
X623701Y483701D02*
D03*
D03*
X513701Y483701D02*
D03*
D03*
X503701Y483701D02*
D03*
X493701Y483701D02*
D03*
X483701Y483701D02*
D03*
X473701Y483701D02*
D03*
X463701Y483701D02*
D03*
X453701Y483701D02*
D03*
X443701Y483701D02*
D03*
X433701Y483701D02*
D03*
X423701Y483701D02*
D03*
X753701Y493701D02*
D03*
X743701Y493701D02*
D03*
D03*
X633701Y493701D02*
D03*
X643701Y493701D02*
D03*
X653701Y493701D02*
D03*
X663701Y493701D02*
D03*
X673701Y493701D02*
D03*
X683701Y493701D02*
D03*
X693701Y493701D02*
D03*
X703701Y493701D02*
D03*
X713701Y493701D02*
D03*
X723701Y493701D02*
D03*
X733701Y493701D02*
D03*
D03*
X523701Y493701D02*
D03*
X533701Y493701D02*
D03*
X543701Y493701D02*
D03*
X553701Y493701D02*
D03*
X563701Y493701D02*
D03*
X573701Y493701D02*
D03*
X583701Y493701D02*
D03*
X593701Y493701D02*
D03*
X603701Y493701D02*
D03*
X613701Y493701D02*
D03*
X623701Y493701D02*
D03*
D03*
X513701Y493701D02*
D03*
D03*
X503701Y493701D02*
D03*
X493701Y493701D02*
D03*
X483701Y493701D02*
D03*
X473701Y493701D02*
D03*
X463701Y493701D02*
D03*
X453701Y493701D02*
D03*
X443701Y493701D02*
D03*
X433701Y493701D02*
D03*
X423701Y493701D02*
D03*
X753701Y503701D02*
D03*
X743701Y503701D02*
D03*
D03*
X633701Y503701D02*
D03*
X643701Y503701D02*
D03*
X653701Y503701D02*
D03*
X663701Y503701D02*
D03*
X673701Y503701D02*
D03*
X683701Y503701D02*
D03*
X693701Y503701D02*
D03*
X703701Y503701D02*
D03*
X713701Y503701D02*
D03*
X723701Y503701D02*
D03*
X733701Y503701D02*
D03*
D03*
X523701Y503701D02*
D03*
X533701Y503701D02*
D03*
X543701Y503701D02*
D03*
X553701Y503701D02*
D03*
X563701Y503701D02*
D03*
X573701Y503701D02*
D03*
X583701Y503701D02*
D03*
X593701Y503701D02*
D03*
X603701Y503701D02*
D03*
X613701Y503701D02*
D03*
X623701Y503701D02*
D03*
D03*
X513701Y503701D02*
D03*
D03*
X503701Y503701D02*
D03*
X493701Y503701D02*
D03*
X483701Y503701D02*
D03*
X473701Y503701D02*
D03*
X463701Y503701D02*
D03*
X453701Y503701D02*
D03*
X443701Y503701D02*
D03*
X433701Y503701D02*
D03*
X423701Y503701D02*
D03*
X753701Y513701D02*
D03*
X743701Y513701D02*
D03*
D03*
X633701Y513701D02*
D03*
X643701Y513701D02*
D03*
X653701Y513701D02*
D03*
X663701Y513701D02*
D03*
X673701Y513701D02*
D03*
X683701Y513701D02*
D03*
X693701Y513701D02*
D03*
X703701Y513701D02*
D03*
X713701Y513701D02*
D03*
X723701Y513701D02*
D03*
X733701Y513701D02*
D03*
D03*
X523701Y513701D02*
D03*
X533701Y513701D02*
D03*
X543701Y513701D02*
D03*
X553701Y513701D02*
D03*
X563701Y513701D02*
D03*
X573701Y513701D02*
D03*
X583701Y513701D02*
D03*
X593701Y513701D02*
D03*
X603701Y513701D02*
D03*
X613701Y513701D02*
D03*
X623701Y513701D02*
D03*
D03*
X513701Y513701D02*
D03*
D03*
X503701Y513701D02*
D03*
X493701Y513701D02*
D03*
X483701Y513701D02*
D03*
X473701Y513701D02*
D03*
X463701Y513701D02*
D03*
X453701Y513701D02*
D03*
X443701Y513701D02*
D03*
X433701Y513701D02*
D03*
X423701Y513701D02*
D03*
X753701Y523701D02*
D03*
X743701Y523701D02*
D03*
D03*
X633701Y523701D02*
D03*
X643701Y523701D02*
D03*
X653701Y523701D02*
D03*
X663701Y523701D02*
D03*
X673701Y523701D02*
D03*
X683701Y523701D02*
D03*
X693701Y523701D02*
D03*
X703701Y523701D02*
D03*
X713701Y523701D02*
D03*
X723701Y523701D02*
D03*
X733701Y523701D02*
D03*
D03*
X523701Y523701D02*
D03*
X533701Y523701D02*
D03*
X543701Y523701D02*
D03*
X553701Y523701D02*
D03*
X563701Y523701D02*
D03*
X573701Y523701D02*
D03*
X583701Y523701D02*
D03*
X593701Y523701D02*
D03*
X603701Y523701D02*
D03*
X613701Y523701D02*
D03*
X623701Y523701D02*
D03*
D03*
X513701Y523701D02*
D03*
D03*
X503701Y523701D02*
D03*
X493701Y523701D02*
D03*
X483701Y523701D02*
D03*
X473701Y523701D02*
D03*
X463701Y523701D02*
D03*
X453701Y523701D02*
D03*
X443701Y523701D02*
D03*
X433701Y523701D02*
D03*
X423701Y523701D02*
D03*
X423701Y643701D02*
D03*
X433701Y643701D02*
D03*
X443701Y643701D02*
D03*
X453701Y643701D02*
D03*
X463701Y643701D02*
D03*
X473701Y643701D02*
D03*
X483701Y643701D02*
D03*
X493701Y643701D02*
D03*
X503701Y643701D02*
D03*
X513701Y643701D02*
D03*
D03*
X623701Y643701D02*
D03*
D03*
X613701Y643701D02*
D03*
X603701Y643701D02*
D03*
X593701Y643701D02*
D03*
X583701Y643701D02*
D03*
X573701Y643701D02*
D03*
X563701Y643701D02*
D03*
X553701Y643701D02*
D03*
X543701Y643701D02*
D03*
X533701Y643701D02*
D03*
X523701Y643701D02*
D03*
X733701Y643701D02*
D03*
D03*
X723701Y643701D02*
D03*
X713701Y643701D02*
D03*
X703701Y643701D02*
D03*
X693701Y643701D02*
D03*
X683701Y643701D02*
D03*
X673701Y643701D02*
D03*
X663701Y643701D02*
D03*
X653701Y643701D02*
D03*
X643701Y643701D02*
D03*
X633701Y643701D02*
D03*
X743701Y643701D02*
D03*
D03*
X753701Y643701D02*
D03*
X423701Y633701D02*
D03*
X433701Y633701D02*
D03*
X443701Y633701D02*
D03*
X453701Y633701D02*
D03*
X463701Y633701D02*
D03*
X473701Y633701D02*
D03*
X483701Y633701D02*
D03*
X493701Y633701D02*
D03*
X503701Y633701D02*
D03*
X513701Y633701D02*
D03*
D03*
X623701Y633701D02*
D03*
D03*
X613701Y633701D02*
D03*
X603701Y633701D02*
D03*
X593701Y633701D02*
D03*
X583701Y633701D02*
D03*
X573701Y633701D02*
D03*
X563701Y633701D02*
D03*
X553701Y633701D02*
D03*
X543701Y633701D02*
D03*
X533701Y633701D02*
D03*
X523701Y633701D02*
D03*
X733701Y633701D02*
D03*
D03*
X723701Y633701D02*
D03*
X713701Y633701D02*
D03*
X703701Y633701D02*
D03*
X693701Y633701D02*
D03*
X683701Y633701D02*
D03*
X673701Y633701D02*
D03*
X663701Y633701D02*
D03*
X653701Y633701D02*
D03*
X643701Y633701D02*
D03*
X633701Y633701D02*
D03*
X743701Y633701D02*
D03*
D03*
X753701Y633701D02*
D03*
X423701Y623701D02*
D03*
X433701Y623701D02*
D03*
X443701Y623701D02*
D03*
X453701Y623701D02*
D03*
X463701Y623701D02*
D03*
X473701Y623701D02*
D03*
X483701Y623701D02*
D03*
X493701Y623701D02*
D03*
X503701Y623701D02*
D03*
X513701Y623701D02*
D03*
D03*
X623701Y623701D02*
D03*
D03*
X613701Y623701D02*
D03*
X603701Y623701D02*
D03*
X593701Y623701D02*
D03*
X583701Y623701D02*
D03*
X573701Y623701D02*
D03*
X563701Y623701D02*
D03*
X553701Y623701D02*
D03*
X543701Y623701D02*
D03*
X533701Y623701D02*
D03*
X523701Y623701D02*
D03*
X733701Y623701D02*
D03*
D03*
X723701Y623701D02*
D03*
X713701Y623701D02*
D03*
X703701Y623701D02*
D03*
X693701Y623701D02*
D03*
X683701Y623701D02*
D03*
X673701Y623701D02*
D03*
X663701Y623701D02*
D03*
X653701Y623701D02*
D03*
X643701Y623701D02*
D03*
X633701Y623701D02*
D03*
X743701Y623701D02*
D03*
D03*
X753701Y623701D02*
D03*
X423701Y613701D02*
D03*
X433701Y613701D02*
D03*
X443701Y613701D02*
D03*
X453701Y613701D02*
D03*
X463701Y613701D02*
D03*
X473701Y613701D02*
D03*
X483701Y613701D02*
D03*
X493701Y613701D02*
D03*
X503701Y613701D02*
D03*
X513701Y613701D02*
D03*
D03*
X623701Y613701D02*
D03*
D03*
X613701Y613701D02*
D03*
X603701Y613701D02*
D03*
X593701Y613701D02*
D03*
X583701Y613701D02*
D03*
X573701Y613701D02*
D03*
X563701Y613701D02*
D03*
X553701Y613701D02*
D03*
X543701Y613701D02*
D03*
X533701Y613701D02*
D03*
X523701Y613701D02*
D03*
X733701Y613701D02*
D03*
D03*
X723701Y613701D02*
D03*
X713701Y613701D02*
D03*
X703701Y613701D02*
D03*
X693701Y613701D02*
D03*
X683701Y613701D02*
D03*
X673701Y613701D02*
D03*
X663701Y613701D02*
D03*
X653701Y613701D02*
D03*
X643701Y613701D02*
D03*
X633701Y613701D02*
D03*
X743701Y613701D02*
D03*
D03*
X753701Y613701D02*
D03*
X423701Y603701D02*
D03*
X433701Y603701D02*
D03*
X443701Y603701D02*
D03*
X453701Y603701D02*
D03*
X463701Y603701D02*
D03*
X473701Y603701D02*
D03*
X483701Y603701D02*
D03*
X493701Y603701D02*
D03*
X503701Y603701D02*
D03*
X513701Y603701D02*
D03*
D03*
X623701Y603701D02*
D03*
D03*
X613701Y603701D02*
D03*
X603701Y603701D02*
D03*
X593701Y603701D02*
D03*
X583701Y603701D02*
D03*
X573701Y603701D02*
D03*
X563701Y603701D02*
D03*
X553701Y603701D02*
D03*
X543701Y603701D02*
D03*
X533701Y603701D02*
D03*
X523701Y603701D02*
D03*
X733701Y603701D02*
D03*
D03*
X723701Y603701D02*
D03*
X713701Y603701D02*
D03*
X703701Y603701D02*
D03*
X693701Y603701D02*
D03*
X683701Y603701D02*
D03*
X673701Y603701D02*
D03*
X663701Y603701D02*
D03*
X653701Y603701D02*
D03*
X643701Y603701D02*
D03*
X633701Y603701D02*
D03*
X743701Y603701D02*
D03*
D03*
X753701Y603701D02*
D03*
X423701Y593701D02*
D03*
X433701Y593701D02*
D03*
X443701Y593701D02*
D03*
X453701Y593701D02*
D03*
X463701Y593701D02*
D03*
X473701Y593701D02*
D03*
X483701Y593701D02*
D03*
X493701Y593701D02*
D03*
X503701Y593701D02*
D03*
X513701Y593701D02*
D03*
D03*
X623701Y593701D02*
D03*
D03*
X613701Y593701D02*
D03*
X603701Y593701D02*
D03*
X593701Y593701D02*
D03*
X583701Y593701D02*
D03*
X573701Y593701D02*
D03*
X563701Y593701D02*
D03*
X553701Y593701D02*
D03*
X543701Y593701D02*
D03*
X533701Y593701D02*
D03*
X523701Y593701D02*
D03*
X733701Y593701D02*
D03*
D03*
X723701Y593701D02*
D03*
X713701Y593701D02*
D03*
X703701Y593701D02*
D03*
X693701Y593701D02*
D03*
X683701Y593701D02*
D03*
X673701Y593701D02*
D03*
X663701Y593701D02*
D03*
X653701Y593701D02*
D03*
X643701Y593701D02*
D03*
X633701Y593701D02*
D03*
X743701Y593701D02*
D03*
D03*
X753701Y593701D02*
D03*
X423701Y583701D02*
D03*
X433701Y583701D02*
D03*
X443701Y583701D02*
D03*
X453701Y583701D02*
D03*
X463701Y583701D02*
D03*
X473701Y583701D02*
D03*
X483701Y583701D02*
D03*
X493701Y583701D02*
D03*
X503701Y583701D02*
D03*
X513701Y583701D02*
D03*
D03*
X623701Y583701D02*
D03*
D03*
X613701Y583701D02*
D03*
X603701Y583701D02*
D03*
X593701Y583701D02*
D03*
X583701Y583701D02*
D03*
X573701Y583701D02*
D03*
X563701Y583701D02*
D03*
X553701Y583701D02*
D03*
X543701Y583701D02*
D03*
X533701Y583701D02*
D03*
X523701Y583701D02*
D03*
X733701Y583701D02*
D03*
D03*
X723701Y583701D02*
D03*
X713701Y583701D02*
D03*
X703701Y583701D02*
D03*
X693701Y583701D02*
D03*
X683701Y583701D02*
D03*
X673701Y583701D02*
D03*
X663701Y583701D02*
D03*
X653701Y583701D02*
D03*
X643701Y583701D02*
D03*
X633701Y583701D02*
D03*
X743701Y583701D02*
D03*
D03*
X753701Y583701D02*
D03*
X423701Y573701D02*
D03*
X433701Y573701D02*
D03*
X443701Y573701D02*
D03*
X453701Y573701D02*
D03*
X463701Y573701D02*
D03*
X473701Y573701D02*
D03*
X483701Y573701D02*
D03*
X493701Y573701D02*
D03*
X503701Y573701D02*
D03*
X513701Y573701D02*
D03*
D03*
X623701Y573701D02*
D03*
D03*
X613701Y573701D02*
D03*
X603701Y573701D02*
D03*
X593701Y573701D02*
D03*
X583701Y573701D02*
D03*
X573701Y573701D02*
D03*
X563701Y573701D02*
D03*
X553701Y573701D02*
D03*
X543701Y573701D02*
D03*
X533701Y573701D02*
D03*
X523701Y573701D02*
D03*
X733701Y573701D02*
D03*
D03*
X723701Y573701D02*
D03*
X713701Y573701D02*
D03*
X703701Y573701D02*
D03*
X693701Y573701D02*
D03*
X683701Y573701D02*
D03*
X673701Y573701D02*
D03*
X663701Y573701D02*
D03*
X653701Y573701D02*
D03*
X643701Y573701D02*
D03*
X633701Y573701D02*
D03*
X743701Y573701D02*
D03*
D03*
X753701Y573701D02*
D03*
X423701Y563701D02*
D03*
X433701Y563701D02*
D03*
X443701Y563701D02*
D03*
X453701Y563701D02*
D03*
X463701Y563701D02*
D03*
X473701Y563701D02*
D03*
X483701Y563701D02*
D03*
X493701Y563701D02*
D03*
X503701Y563701D02*
D03*
X513701Y563701D02*
D03*
D03*
X623701Y563701D02*
D03*
D03*
X613701Y563701D02*
D03*
X603701Y563701D02*
D03*
X593701Y563701D02*
D03*
X583701Y563701D02*
D03*
X573701Y563701D02*
D03*
X563701Y563701D02*
D03*
X553701Y563701D02*
D03*
X543701Y563701D02*
D03*
X533701Y563701D02*
D03*
X523701Y563701D02*
D03*
X733701Y563701D02*
D03*
D03*
X723701Y563701D02*
D03*
X713701Y563701D02*
D03*
X703701Y563701D02*
D03*
X693701Y563701D02*
D03*
X683701Y563701D02*
D03*
X673701Y563701D02*
D03*
X663701Y563701D02*
D03*
X653701Y563701D02*
D03*
X643701Y563701D02*
D03*
X633701Y563701D02*
D03*
X743701Y563701D02*
D03*
D03*
X753701Y563701D02*
D03*
X423701Y553701D02*
D03*
X433701Y553701D02*
D03*
X443701Y553701D02*
D03*
X453701Y553701D02*
D03*
X463701Y553701D02*
D03*
X473701Y553701D02*
D03*
X483701Y553701D02*
D03*
X493701Y553701D02*
D03*
X503701Y553701D02*
D03*
X513701Y553701D02*
D03*
D03*
X623701Y553701D02*
D03*
D03*
X613701Y553701D02*
D03*
X603701Y553701D02*
D03*
X593701Y553701D02*
D03*
X583701Y553701D02*
D03*
X573701Y553701D02*
D03*
X563701Y553701D02*
D03*
X553701Y553701D02*
D03*
X543701Y553701D02*
D03*
X533701Y553701D02*
D03*
X523701Y553701D02*
D03*
X733701Y553701D02*
D03*
D03*
X723701Y553701D02*
D03*
X713701Y553701D02*
D03*
X703701Y553701D02*
D03*
X693701Y553701D02*
D03*
X683701Y553701D02*
D03*
X673701Y553701D02*
D03*
X663701Y553701D02*
D03*
X653701Y553701D02*
D03*
X643701Y553701D02*
D03*
X633701Y553701D02*
D03*
X743701Y553701D02*
D03*
D03*
X753701Y553701D02*
D03*
X423701Y543701D02*
D03*
X433701Y543701D02*
D03*
X443701Y543701D02*
D03*
X453701Y543701D02*
D03*
X463701Y543701D02*
D03*
X473701Y543701D02*
D03*
X483701Y543701D02*
D03*
X493701Y543701D02*
D03*
X503701Y543701D02*
D03*
X513701Y543701D02*
D03*
D03*
X623701Y543701D02*
D03*
D03*
X613701Y543701D02*
D03*
X603701Y543701D02*
D03*
X593701Y543701D02*
D03*
X583701Y543701D02*
D03*
X573701Y543701D02*
D03*
X563701Y543701D02*
D03*
X553701Y543701D02*
D03*
X543701Y543701D02*
D03*
X533701Y543701D02*
D03*
X523701Y543701D02*
D03*
X733701Y543701D02*
D03*
D03*
X723701Y543701D02*
D03*
X713701Y543701D02*
D03*
X703701Y543701D02*
D03*
X693701Y543701D02*
D03*
X683701Y543701D02*
D03*
X673701Y543701D02*
D03*
X663701Y543701D02*
D03*
X653701Y543701D02*
D03*
X643701Y543701D02*
D03*
X633701Y543701D02*
D03*
X743701Y543701D02*
D03*
D03*
X753701Y543701D02*
D03*
X753701Y533701D02*
D03*
X743701Y533701D02*
D03*
D03*
X633701Y533701D02*
D03*
X643701Y533701D02*
D03*
X653701Y533701D02*
D03*
X663701Y533701D02*
D03*
X673701Y533701D02*
D03*
X683701Y533701D02*
D03*
X693701Y533701D02*
D03*
X703701Y533701D02*
D03*
X713701Y533701D02*
D03*
X723701Y533701D02*
D03*
X733701Y533701D02*
D03*
D03*
X523701Y533701D02*
D03*
X533701Y533701D02*
D03*
X543701Y533701D02*
D03*
X553701Y533701D02*
D03*
X563701Y533701D02*
D03*
X573701Y533701D02*
D03*
X583701Y533701D02*
D03*
X593701Y533701D02*
D03*
X603701Y533701D02*
D03*
X613701Y533701D02*
D03*
X623701Y533701D02*
D03*
D03*
X513701Y533701D02*
D03*
D03*
X503701Y533701D02*
D03*
X493701Y533701D02*
D03*
X483701Y533701D02*
D03*
X473701Y533701D02*
D03*
X463701Y533701D02*
D03*
X453701Y533701D02*
D03*
X443701Y533701D02*
D03*
X433701Y533701D02*
D03*
X423701Y533701D02*
D03*
X423701Y763701D02*
D03*
X433701Y763701D02*
D03*
X443701Y763701D02*
D03*
X453701Y763701D02*
D03*
X463701Y763701D02*
D03*
X473701Y763701D02*
D03*
X483701Y763701D02*
D03*
X493701Y763701D02*
D03*
X503701Y763701D02*
D03*
X513701Y763701D02*
D03*
D03*
X623701Y763701D02*
D03*
D03*
X613701Y763701D02*
D03*
X603701Y763701D02*
D03*
X593701Y763701D02*
D03*
X583701Y763701D02*
D03*
X573701Y763701D02*
D03*
X563701Y763701D02*
D03*
X553701Y763701D02*
D03*
X543701Y763701D02*
D03*
X533701Y763701D02*
D03*
X523701Y763701D02*
D03*
X733701Y763701D02*
D03*
D03*
X723701Y763701D02*
D03*
X713701Y763701D02*
D03*
X703701Y763701D02*
D03*
X693701Y763701D02*
D03*
X683701Y763701D02*
D03*
X673701Y763701D02*
D03*
X663701Y763701D02*
D03*
X653701Y763701D02*
D03*
X643701Y763701D02*
D03*
X633701Y763701D02*
D03*
X743701Y763701D02*
D03*
D03*
X753701Y763701D02*
D03*
X423701Y753701D02*
D03*
X433701Y753701D02*
D03*
X443701Y753701D02*
D03*
X453701Y753701D02*
D03*
X463701Y753701D02*
D03*
X473701Y753701D02*
D03*
X483701Y753701D02*
D03*
X493701Y753701D02*
D03*
X503701Y753701D02*
D03*
X513701Y753701D02*
D03*
D03*
X623701Y753701D02*
D03*
D03*
X613701Y753701D02*
D03*
X603701Y753701D02*
D03*
X593701Y753701D02*
D03*
X583701Y753701D02*
D03*
X573701Y753701D02*
D03*
X563701Y753701D02*
D03*
X553701Y753701D02*
D03*
X543701Y753701D02*
D03*
X533701Y753701D02*
D03*
X523701Y753701D02*
D03*
X733701Y753701D02*
D03*
D03*
X723701Y753701D02*
D03*
X713701Y753701D02*
D03*
X703701Y753701D02*
D03*
X693701Y753701D02*
D03*
X683701Y753701D02*
D03*
X673701Y753701D02*
D03*
X663701Y753701D02*
D03*
X653701Y753701D02*
D03*
X643701Y753701D02*
D03*
X633701Y753701D02*
D03*
X743701Y753701D02*
D03*
D03*
X753701Y753701D02*
D03*
X423701Y743701D02*
D03*
X433701Y743701D02*
D03*
X443701Y743701D02*
D03*
X453701Y743701D02*
D03*
X463701Y743701D02*
D03*
X473701Y743701D02*
D03*
X483701Y743701D02*
D03*
X493701Y743701D02*
D03*
X503701Y743701D02*
D03*
X513701Y743701D02*
D03*
D03*
X623701Y743701D02*
D03*
D03*
X613701Y743701D02*
D03*
X603701Y743701D02*
D03*
X593701Y743701D02*
D03*
X583701Y743701D02*
D03*
X573701Y743701D02*
D03*
X563701Y743701D02*
D03*
X553701Y743701D02*
D03*
X543701Y743701D02*
D03*
X533701Y743701D02*
D03*
X523701Y743701D02*
D03*
X733701Y743701D02*
D03*
D03*
X723701Y743701D02*
D03*
X713701Y743701D02*
D03*
X703701Y743701D02*
D03*
X693701Y743701D02*
D03*
X683701Y743701D02*
D03*
X673701Y743701D02*
D03*
X663701Y743701D02*
D03*
X653701Y743701D02*
D03*
X643701Y743701D02*
D03*
X633701Y743701D02*
D03*
X743701Y743701D02*
D03*
D03*
X753701Y743701D02*
D03*
X423701Y733701D02*
D03*
X433701Y733701D02*
D03*
X443701Y733701D02*
D03*
X453701Y733701D02*
D03*
X463701Y733701D02*
D03*
X473701Y733701D02*
D03*
X483701Y733701D02*
D03*
X493701Y733701D02*
D03*
X503701Y733701D02*
D03*
X513701Y733701D02*
D03*
D03*
X623701Y733701D02*
D03*
D03*
X613701Y733701D02*
D03*
X603701Y733701D02*
D03*
X593701Y733701D02*
D03*
X583701Y733701D02*
D03*
X573701Y733701D02*
D03*
X563701Y733701D02*
D03*
X553701Y733701D02*
D03*
X543701Y733701D02*
D03*
X533701Y733701D02*
D03*
X523701Y733701D02*
D03*
X733701Y733701D02*
D03*
D03*
X723701Y733701D02*
D03*
X713701Y733701D02*
D03*
X703701Y733701D02*
D03*
X693701Y733701D02*
D03*
X683701Y733701D02*
D03*
X673701Y733701D02*
D03*
X663701Y733701D02*
D03*
X653701Y733701D02*
D03*
X643701Y733701D02*
D03*
X633701Y733701D02*
D03*
X743701Y733701D02*
D03*
D03*
X753701Y733701D02*
D03*
X423701Y723701D02*
D03*
X433701Y723701D02*
D03*
X443701Y723701D02*
D03*
X453701Y723701D02*
D03*
X463701Y723701D02*
D03*
X473701Y723701D02*
D03*
X483701Y723701D02*
D03*
X493701Y723701D02*
D03*
X503701Y723701D02*
D03*
X513701Y723701D02*
D03*
D03*
X623701Y723701D02*
D03*
D03*
X613701Y723701D02*
D03*
X603701Y723701D02*
D03*
X593701Y723701D02*
D03*
X583701Y723701D02*
D03*
X573701Y723701D02*
D03*
X563701Y723701D02*
D03*
X553701Y723701D02*
D03*
X543701Y723701D02*
D03*
X533701Y723701D02*
D03*
X523701Y723701D02*
D03*
X733701Y723701D02*
D03*
D03*
X723701Y723701D02*
D03*
X713701Y723701D02*
D03*
X703701Y723701D02*
D03*
X693701Y723701D02*
D03*
X683701Y723701D02*
D03*
X673701Y723701D02*
D03*
X663701Y723701D02*
D03*
X653701Y723701D02*
D03*
X643701Y723701D02*
D03*
X633701Y723701D02*
D03*
X743701Y723701D02*
D03*
D03*
X753701Y723701D02*
D03*
X423701Y713701D02*
D03*
X433701Y713701D02*
D03*
X443701Y713701D02*
D03*
X453701Y713701D02*
D03*
X463701Y713701D02*
D03*
X473701Y713701D02*
D03*
X483701Y713701D02*
D03*
X493701Y713701D02*
D03*
X503701Y713701D02*
D03*
X513701Y713701D02*
D03*
D03*
X623701Y713701D02*
D03*
D03*
X613701Y713701D02*
D03*
X603701Y713701D02*
D03*
X593701Y713701D02*
D03*
X583701Y713701D02*
D03*
X573701Y713701D02*
D03*
X563701Y713701D02*
D03*
X553701Y713701D02*
D03*
X543701Y713701D02*
D03*
X533701Y713701D02*
D03*
X523701Y713701D02*
D03*
X733701Y713701D02*
D03*
D03*
X723701Y713701D02*
D03*
X713701Y713701D02*
D03*
X703701Y713701D02*
D03*
X693701Y713701D02*
D03*
X683701Y713701D02*
D03*
X673701Y713701D02*
D03*
X663701Y713701D02*
D03*
X653701Y713701D02*
D03*
X643701Y713701D02*
D03*
X633701Y713701D02*
D03*
X743701Y713701D02*
D03*
D03*
X753701Y713701D02*
D03*
X423701Y703701D02*
D03*
X433701Y703701D02*
D03*
X443701Y703701D02*
D03*
X453701Y703701D02*
D03*
X463701Y703701D02*
D03*
X473701Y703701D02*
D03*
X483701Y703701D02*
D03*
X493701Y703701D02*
D03*
X503701Y703701D02*
D03*
X513701Y703701D02*
D03*
D03*
X623701Y703701D02*
D03*
D03*
X613701Y703701D02*
D03*
X603701Y703701D02*
D03*
X593701Y703701D02*
D03*
X583701Y703701D02*
D03*
X573701Y703701D02*
D03*
X563701Y703701D02*
D03*
X553701Y703701D02*
D03*
X543701Y703701D02*
D03*
X533701Y703701D02*
D03*
X523701Y703701D02*
D03*
X733701Y703701D02*
D03*
D03*
X723701Y703701D02*
D03*
X713701Y703701D02*
D03*
X703701Y703701D02*
D03*
X693701Y703701D02*
D03*
X683701Y703701D02*
D03*
X673701Y703701D02*
D03*
X663701Y703701D02*
D03*
X653701Y703701D02*
D03*
X643701Y703701D02*
D03*
X633701Y703701D02*
D03*
X743701Y703701D02*
D03*
D03*
X753701Y703701D02*
D03*
X423701Y693701D02*
D03*
X433701Y693701D02*
D03*
X443701Y693701D02*
D03*
X453701Y693701D02*
D03*
X463701Y693701D02*
D03*
X473701Y693701D02*
D03*
X483701Y693701D02*
D03*
X493701Y693701D02*
D03*
X503701Y693701D02*
D03*
X513701Y693701D02*
D03*
D03*
X623701Y693701D02*
D03*
D03*
X613701Y693701D02*
D03*
X603701Y693701D02*
D03*
X593701Y693701D02*
D03*
X583701Y693701D02*
D03*
X573701Y693701D02*
D03*
X563701Y693701D02*
D03*
X553701Y693701D02*
D03*
X543701Y693701D02*
D03*
X533701Y693701D02*
D03*
X523701Y693701D02*
D03*
X733701Y693701D02*
D03*
D03*
X723701Y693701D02*
D03*
X713701Y693701D02*
D03*
X703701Y693701D02*
D03*
X693701Y693701D02*
D03*
X683701Y693701D02*
D03*
X673701Y693701D02*
D03*
X663701Y693701D02*
D03*
X653701Y693701D02*
D03*
X643701Y693701D02*
D03*
X633701Y693701D02*
D03*
X743701Y693701D02*
D03*
D03*
X753701Y693701D02*
D03*
X423701Y683701D02*
D03*
X433701Y683701D02*
D03*
X443701Y683701D02*
D03*
X453701Y683701D02*
D03*
X463701Y683701D02*
D03*
X473701Y683701D02*
D03*
X483701Y683701D02*
D03*
X493701Y683701D02*
D03*
X503701Y683701D02*
D03*
X513701Y683701D02*
D03*
D03*
X623701Y683701D02*
D03*
D03*
X613701Y683701D02*
D03*
X603701Y683701D02*
D03*
X593701Y683701D02*
D03*
X583701Y683701D02*
D03*
X573701Y683701D02*
D03*
X563701Y683701D02*
D03*
X553701Y683701D02*
D03*
X543701Y683701D02*
D03*
X533701Y683701D02*
D03*
X523701Y683701D02*
D03*
X733701Y683701D02*
D03*
D03*
X723701Y683701D02*
D03*
X713701Y683701D02*
D03*
X703701Y683701D02*
D03*
X693701Y683701D02*
D03*
X683701Y683701D02*
D03*
X673701Y683701D02*
D03*
X663701Y683701D02*
D03*
X653701Y683701D02*
D03*
X643701Y683701D02*
D03*
X633701Y683701D02*
D03*
X743701Y683701D02*
D03*
D03*
X753701Y683701D02*
D03*
X423701Y673701D02*
D03*
X433701Y673701D02*
D03*
X443701Y673701D02*
D03*
X453701Y673701D02*
D03*
X463701Y673701D02*
D03*
X473701Y673701D02*
D03*
X483701Y673701D02*
D03*
X493701Y673701D02*
D03*
X503701Y673701D02*
D03*
X513701Y673701D02*
D03*
D03*
X623701Y673701D02*
D03*
D03*
X613701Y673701D02*
D03*
X603701Y673701D02*
D03*
X593701Y673701D02*
D03*
X583701Y673701D02*
D03*
X573701Y673701D02*
D03*
X563701Y673701D02*
D03*
X553701Y673701D02*
D03*
X543701Y673701D02*
D03*
X533701Y673701D02*
D03*
X523701Y673701D02*
D03*
X733701Y673701D02*
D03*
D03*
X723701Y673701D02*
D03*
X713701Y673701D02*
D03*
X703701Y673701D02*
D03*
X693701Y673701D02*
D03*
X683701Y673701D02*
D03*
X673701Y673701D02*
D03*
X663701Y673701D02*
D03*
X653701Y673701D02*
D03*
X643701Y673701D02*
D03*
X633701Y673701D02*
D03*
X743701Y673701D02*
D03*
D03*
X753701Y673701D02*
D03*
X423701Y663701D02*
D03*
X433701Y663701D02*
D03*
X443701Y663701D02*
D03*
X453701Y663701D02*
D03*
X463701Y663701D02*
D03*
X473701Y663701D02*
D03*
X483701Y663701D02*
D03*
X493701Y663701D02*
D03*
X503701Y663701D02*
D03*
X513701Y663701D02*
D03*
D03*
X623701Y663701D02*
D03*
D03*
X613701Y663701D02*
D03*
X603701Y663701D02*
D03*
X593701Y663701D02*
D03*
X583701Y663701D02*
D03*
X573701Y663701D02*
D03*
X563701Y663701D02*
D03*
X553701Y663701D02*
D03*
X543701Y663701D02*
D03*
X533701Y663701D02*
D03*
X523701Y663701D02*
D03*
X733701Y663701D02*
D03*
D03*
X723701Y663701D02*
D03*
X713701Y663701D02*
D03*
X703701Y663701D02*
D03*
X693701Y663701D02*
D03*
X683701Y663701D02*
D03*
X673701Y663701D02*
D03*
X663701Y663701D02*
D03*
X653701Y663701D02*
D03*
X643701Y663701D02*
D03*
X633701Y663701D02*
D03*
X743701Y663701D02*
D03*
D03*
X753701Y663701D02*
D03*
X753701Y653701D02*
D03*
X743701Y653701D02*
D03*
D03*
X633701Y653701D02*
D03*
X643701Y653701D02*
D03*
X653701Y653701D02*
D03*
X663701Y653701D02*
D03*
X673701Y653701D02*
D03*
X683701Y653701D02*
D03*
X693701Y653701D02*
D03*
X703701Y653701D02*
D03*
X713701Y653701D02*
D03*
X723701Y653701D02*
D03*
X733701Y653701D02*
D03*
D03*
X523701Y653701D02*
D03*
X533701Y653701D02*
D03*
X543701Y653701D02*
D03*
X553701Y653701D02*
D03*
X563701Y653701D02*
D03*
X573701Y653701D02*
D03*
X583701Y653701D02*
D03*
X593701Y653701D02*
D03*
X603701Y653701D02*
D03*
X613701Y653701D02*
D03*
X623701Y653701D02*
D03*
D03*
X513701Y653701D02*
D03*
D03*
X503701Y653701D02*
D03*
X493701Y653701D02*
D03*
X483701Y653701D02*
D03*
X473701Y653701D02*
D03*
X463701Y653701D02*
D03*
X453701Y653701D02*
D03*
X443701Y653701D02*
D03*
X433701Y653701D02*
D03*
X423701Y653701D02*
D03*
M02*
