G04 Layer_Color=15132400*
%FSLAX25Y25*%
%MOIN*%
G70*
G01*
G75*
%ADD12C,0.00630*%
G36*
X551303Y773402D02*
X548515Y773402D01*
X551565Y782389D01*
X554353Y782389D01*
X551303Y773402D01*
X551303Y773402D02*
G37*
G36*
X587678Y780454D02*
X583594Y780454D01*
X583053Y778896D01*
X586546Y778896D01*
X585940Y777075D01*
X582446Y777075D01*
X581200Y773402D01*
X578412Y773402D01*
X581462Y782389D01*
X588334Y782389D01*
X587678Y780454D01*
X587678Y780454D02*
G37*
G36*
X519306Y782372D02*
X519421Y782372D01*
X519569Y782356D01*
X519880Y782307D01*
X520208Y782208D01*
X520553Y782077D01*
X520848Y781913D01*
X520979Y781798D01*
X521078Y781667D01*
X521094Y781634D01*
X521127Y781585D01*
X521143Y781536D01*
X521209Y781372D01*
X521274Y781142D01*
X521324Y780847D01*
X521324Y780503D01*
X521307Y780306D01*
X521274Y780093D01*
X521209Y779880D01*
X521143Y779634D01*
X521143Y779617D01*
X521127Y779568D01*
X521094Y779502D01*
X521061Y779404D01*
X521012Y779289D01*
X520946Y779158D01*
X520782Y778863D01*
X520569Y778518D01*
X520307Y778158D01*
X519979Y777813D01*
X519602Y777502D01*
X519585Y777502D01*
X519552Y777469D01*
X519487Y777436D01*
X519405Y777387D01*
X519306Y777321D01*
X519175Y777256D01*
X519028Y777190D01*
X518847Y777124D01*
X518667Y777059D01*
X518454Y776993D01*
X518224Y776928D01*
X517978Y776862D01*
X517716Y776813D01*
X517453Y776780D01*
X517158Y776764D01*
X516846Y776747D01*
X515321Y776747D01*
X514190Y773402D01*
X511402Y773402D01*
X514452Y782389D01*
X519208Y782389D01*
X519306Y782372D01*
X519306Y782372D02*
G37*
G36*
X529376Y773402D02*
X526457Y773402D01*
X526506Y774878D01*
X523374Y774878D01*
X522422Y773402D01*
X519585Y773402D01*
X525998Y782389D01*
X529048Y782389D01*
X529376Y773402D01*
X529376Y773402D02*
G37*
G36*
X618707Y782372D02*
X618838Y782372D01*
X619100Y782340D01*
X619396Y782307D01*
X619707Y782241D01*
X620002Y782159D01*
X620265Y782044D01*
X620298Y782028D01*
X620363Y781979D01*
X620478Y781913D01*
X620626Y781798D01*
X620773Y781667D01*
X620921Y781503D01*
X621068Y781306D01*
X621183Y781093D01*
X621200Y781060D01*
X621232Y780978D01*
X621265Y780864D01*
X621314Y780683D01*
X621364Y780470D01*
X621396Y780224D01*
X621413Y779945D01*
X621396Y779650D01*
X621396Y779634D01*
X621396Y779617D01*
X621396Y779568D01*
X621380Y779502D01*
X621364Y779338D01*
X621331Y779125D01*
X621282Y778863D01*
X621216Y778568D01*
X621134Y778256D01*
X621036Y777912D01*
X621036Y777895D01*
X621019Y777846D01*
X620986Y777780D01*
X620954Y777682D01*
X620904Y777551D01*
X620855Y777420D01*
X620708Y777092D01*
X620544Y776747D01*
X620363Y776370D01*
X620166Y776009D01*
X619937Y775681D01*
X619937Y775665D01*
X619904Y775648D01*
X619838Y775550D01*
X619707Y775402D01*
X619543Y775222D01*
X619346Y775009D01*
X619117Y774796D01*
X618854Y774566D01*
X618576Y774353D01*
X618543Y774336D01*
X618444Y774271D01*
X618297Y774172D01*
X618116Y774058D01*
X617887Y773943D01*
X617641Y773828D01*
X617378Y773713D01*
X617100Y773631D01*
X617083Y773631D01*
X617050Y773615D01*
X617001Y773615D01*
X616936Y773598D01*
X616739Y773566D01*
X616509Y773516D01*
X616230Y773467D01*
X615935Y773434D01*
X615640Y773418D01*
X615345Y773402D01*
X611228Y773402D01*
X614279Y782389D01*
X618608Y782389D01*
X618707Y782372D01*
X618707Y782372D02*
G37*
G36*
X605390Y782372D02*
X605669Y782356D01*
X605980Y782340D01*
X606292Y782290D01*
X606587Y782241D01*
X606850Y782159D01*
X606882Y782143D01*
X606948Y782110D01*
X607046Y782061D01*
X607178Y781979D01*
X607309Y781864D01*
X607456Y781716D01*
X607571Y781552D01*
X607670Y781339D01*
X607686Y781306D01*
X607702Y781241D01*
X607719Y781110D01*
X607735Y780929D01*
X607752Y780716D01*
X607719Y780470D01*
X607670Y780191D01*
X607588Y779880D01*
X607571Y779847D01*
X607538Y779748D01*
X607473Y779617D01*
X607391Y779437D01*
X607292Y779240D01*
X607145Y779027D01*
X606997Y778797D01*
X606817Y778584D01*
X606800Y778568D01*
X606735Y778502D01*
X606620Y778404D01*
X606489Y778272D01*
X606325Y778141D01*
X606112Y777994D01*
X605898Y777846D01*
X605652Y777715D01*
X605636Y777698D01*
X605570Y777682D01*
X605488Y777633D01*
X605357Y777584D01*
X605193Y777534D01*
X605013Y777469D01*
X604800Y777420D01*
X604554Y777354D01*
X604570Y777354D01*
X604619Y777321D01*
X604701Y777288D01*
X604800Y777256D01*
X604996Y777141D01*
X605095Y777092D01*
X605160Y777026D01*
X605177Y777010D01*
X605210Y776977D01*
X605242Y776928D01*
X605275Y776862D01*
X605324Y776780D01*
X605374Y776682D01*
X605439Y776550D01*
X605456Y776534D01*
X605472Y776485D01*
X605505Y776419D01*
X605538Y776354D01*
X605603Y776157D01*
X605652Y775993D01*
X606128Y773402D01*
X602979Y773402D01*
X602422Y776140D01*
X602422Y776157D01*
X602405Y776222D01*
X602372Y776321D01*
X602340Y776419D01*
X602258Y776649D01*
X602208Y776747D01*
X602143Y776829D01*
X602126Y776846D01*
X602094Y776862D01*
X602044Y776895D01*
X601979Y776944D01*
X601897Y776977D01*
X601798Y777010D01*
X601667Y777026D01*
X601536Y777042D01*
X601290Y777042D01*
X600060Y773402D01*
X597272Y773402D01*
X600322Y782389D01*
X605259Y782389D01*
X605390Y782372D01*
X605390Y782372D02*
G37*
G36*
X642011Y773402D02*
X639223Y773402D01*
X642274Y782389D01*
X645062Y782389D01*
X642011Y773402D01*
X642011Y773402D02*
G37*
G36*
X630810Y780470D02*
X626152Y780470D01*
X625660Y779043D01*
X629974Y779043D01*
X629350Y777206D01*
X625037Y777206D01*
X624447Y775435D01*
X629236Y775435D01*
X628547Y773402D01*
X620970Y773402D01*
X624020Y782389D01*
X631466Y782389D01*
X630810Y780470D01*
X630810Y780470D02*
G37*
G36*
X537314Y782520D02*
X537461Y782520D01*
X537609Y782504D01*
X537986Y782454D01*
X538380Y782372D01*
X538773Y782258D01*
X539150Y782094D01*
X539298Y781995D01*
X539446Y781880D01*
X539478Y781848D01*
X539544Y781766D01*
X539642Y781602D01*
X539757Y781388D01*
X539806Y781257D01*
X539839Y781110D01*
X539872Y780929D01*
X539888Y780749D01*
X539905Y780552D01*
X539888Y780339D01*
X539872Y780093D01*
X539823Y779847D01*
X537150Y779699D01*
X537150Y779732D01*
X537166Y779798D01*
X537166Y779912D01*
X537166Y780044D01*
X537150Y780175D01*
X537133Y780322D01*
X537084Y780470D01*
X537002Y780585D01*
X536986Y780601D01*
X536953Y780634D01*
X536904Y780667D01*
X536822Y780732D01*
X536707Y780782D01*
X536559Y780814D01*
X536395Y780847D01*
X536182Y780864D01*
X536100Y780864D01*
X536018Y780847D01*
X535903Y780831D01*
X535657Y780782D01*
X535526Y780716D01*
X535395Y780650D01*
X535378Y780634D01*
X535346Y780618D01*
X535296Y780568D01*
X535231Y780519D01*
X535083Y780355D01*
X535034Y780257D01*
X534985Y780158D01*
X534985Y780142D01*
X534968Y780126D01*
X534968Y780027D01*
X534985Y779896D01*
X535001Y779830D01*
X535050Y779765D01*
X535083Y779732D01*
X535132Y779699D01*
X535198Y779650D01*
X535313Y779601D01*
X535460Y779552D01*
X535641Y779486D01*
X535870Y779437D01*
X535887Y779437D01*
X535952Y779420D01*
X536034Y779404D01*
X536149Y779371D01*
X536280Y779338D01*
X536444Y779289D01*
X536789Y779191D01*
X537182Y779076D01*
X537560Y778928D01*
X537740Y778863D01*
X537920Y778781D01*
X538068Y778715D01*
X538199Y778633D01*
X538232Y778617D01*
X538298Y778568D01*
X538412Y778486D01*
X538544Y778371D01*
X538691Y778223D01*
X538822Y778059D01*
X538921Y777862D01*
X539003Y777649D01*
X539003Y777616D01*
X539019Y777551D01*
X539036Y777420D01*
X539052Y777256D01*
X539052Y777059D01*
X539036Y776846D01*
X539003Y776583D01*
X538921Y776321D01*
X538921Y776304D01*
X538904Y776288D01*
X538888Y776239D01*
X538872Y776173D01*
X538790Y776009D01*
X538691Y775796D01*
X538544Y775550D01*
X538363Y775271D01*
X538150Y774992D01*
X537904Y774714D01*
X537871Y774681D01*
X537773Y774599D01*
X537625Y774468D01*
X537412Y774304D01*
X537166Y774123D01*
X536871Y773943D01*
X536543Y773779D01*
X536182Y773615D01*
X536166Y773615D01*
X536133Y773598D01*
X536084Y773582D01*
X536002Y773566D01*
X535920Y773533D01*
X535805Y773500D01*
X535674Y773467D01*
X535526Y773434D01*
X535182Y773369D01*
X534804Y773303D01*
X534362Y773270D01*
X533886Y773254D01*
X533673Y773254D01*
X533525Y773270D01*
X533328Y773287D01*
X533132Y773303D01*
X532902Y773320D01*
X532672Y773369D01*
X532180Y773467D01*
X531934Y773533D01*
X531705Y773615D01*
X531492Y773713D01*
X531295Y773844D01*
X531131Y773976D01*
X531000Y774123D01*
X531000Y774140D01*
X530983Y774172D01*
X530950Y774222D01*
X530918Y774287D01*
X530885Y774369D01*
X530836Y774468D01*
X530803Y774599D01*
X530754Y774730D01*
X530688Y775058D01*
X530655Y775452D01*
X530672Y775665D01*
X530688Y775878D01*
X530721Y776124D01*
X530770Y776370D01*
X533476Y776550D01*
X533476Y776518D01*
X533460Y776436D01*
X533443Y776321D01*
X533427Y776190D01*
X533427Y776026D01*
X533427Y775862D01*
X533443Y775698D01*
X533492Y775566D01*
X533509Y775550D01*
X533542Y775484D01*
X533607Y775402D01*
X533722Y775304D01*
X533853Y775189D01*
X534034Y775107D01*
X534263Y775042D01*
X534526Y775025D01*
X534624Y775025D01*
X534739Y775042D01*
X534886Y775058D01*
X535034Y775091D01*
X535214Y775140D01*
X535378Y775206D01*
X535542Y775288D01*
X535559Y775304D01*
X535608Y775337D01*
X535690Y775402D01*
X535772Y775468D01*
X535870Y775566D01*
X535952Y775681D01*
X536034Y775812D01*
X536084Y775944D01*
X536084Y775960D01*
X536100Y776009D01*
X536116Y776075D01*
X536116Y776157D01*
X536116Y776255D01*
X536100Y776354D01*
X536067Y776468D01*
X536002Y776567D01*
X535985Y776583D01*
X535952Y776616D01*
X535887Y776665D01*
X535772Y776731D01*
X535608Y776813D01*
X535378Y776911D01*
X535247Y776960D01*
X535100Y776993D01*
X534936Y777042D01*
X534755Y777092D01*
X534739Y777092D01*
X534690Y777108D01*
X534591Y777141D01*
X534476Y777157D01*
X534345Y777206D01*
X534198Y777256D01*
X533837Y777370D01*
X533460Y777534D01*
X533099Y777715D01*
X532918Y777813D01*
X532771Y777928D01*
X532623Y778043D01*
X532508Y778174D01*
X532492Y778207D01*
X532426Y778289D01*
X532361Y778436D01*
X532279Y778650D01*
X532230Y778896D01*
X532197Y779191D01*
X532197Y779355D01*
X532230Y779519D01*
X532262Y779699D01*
X532312Y779896D01*
X532312Y779912D01*
X532328Y779929D01*
X532361Y780011D01*
X532426Y780158D01*
X532508Y780322D01*
X532623Y780519D01*
X532771Y780749D01*
X532951Y780978D01*
X533164Y781208D01*
X533197Y781241D01*
X533279Y781306D01*
X533410Y781421D01*
X533591Y781569D01*
X533804Y781716D01*
X534066Y781880D01*
X534362Y782028D01*
X534690Y782176D01*
X534706Y782176D01*
X534739Y782192D01*
X534788Y782208D01*
X534854Y782225D01*
X534952Y782258D01*
X535067Y782290D01*
X535182Y782323D01*
X535329Y782356D01*
X535493Y782389D01*
X535674Y782422D01*
X536067Y782487D01*
X536526Y782520D01*
X537035Y782536D01*
X537199Y782536D01*
X537314Y782520D01*
X537314Y782520D02*
G37*
G36*
X652114Y782520D02*
X652425Y782504D01*
X652786Y782471D01*
X653130Y782422D01*
X653458Y782356D01*
X653606Y782307D01*
X653737Y782258D01*
X653770Y782241D01*
X653852Y782208D01*
X653967Y782143D01*
X654098Y782061D01*
X654262Y781946D01*
X654410Y781798D01*
X654557Y781618D01*
X654688Y781421D01*
X654705Y781388D01*
X654738Y781323D01*
X654787Y781192D01*
X654836Y781028D01*
X654885Y780831D01*
X654918Y780585D01*
X654934Y780306D01*
X654934Y779994D01*
X652097Y779519D01*
X652097Y779535D01*
X652097Y779601D01*
X652081Y779699D01*
X652064Y779814D01*
X652032Y779929D01*
X651982Y780060D01*
X651900Y780175D01*
X651802Y780290D01*
X651786Y780306D01*
X651736Y780339D01*
X651671Y780372D01*
X651572Y780437D01*
X651441Y780486D01*
X651277Y780519D01*
X651097Y780552D01*
X650884Y780568D01*
X650802Y780568D01*
X650736Y780552D01*
X650556Y780536D01*
X650326Y780486D01*
X650064Y780421D01*
X649785Y780306D01*
X649490Y780142D01*
X649194Y779929D01*
X649162Y779896D01*
X649063Y779814D01*
X648932Y779650D01*
X648752Y779437D01*
X648571Y779158D01*
X648456Y778994D01*
X648358Y778814D01*
X648260Y778617D01*
X648161Y778404D01*
X648063Y778174D01*
X647964Y777928D01*
X647964Y777912D01*
X647948Y777862D01*
X647915Y777797D01*
X647899Y777698D01*
X647866Y777567D01*
X647833Y777436D01*
X647768Y777124D01*
X647702Y776780D01*
X647686Y776436D01*
X647718Y776108D01*
X647751Y775976D01*
X647800Y775845D01*
X647817Y775812D01*
X647866Y775747D01*
X647964Y775648D01*
X648096Y775534D01*
X648276Y775419D01*
X648506Y775320D01*
X648784Y775255D01*
X649129Y775222D01*
X649309Y775222D01*
X649424Y775238D01*
X649572Y775255D01*
X649719Y775271D01*
X650064Y775353D01*
X650080Y775353D01*
X650146Y775386D01*
X650244Y775419D01*
X650392Y775468D01*
X650556Y775517D01*
X650752Y775599D01*
X650966Y775698D01*
X651212Y775812D01*
X651490Y776665D01*
X649621Y776665D01*
X650260Y778535D01*
X654557Y778535D01*
X653245Y774697D01*
X653229Y774681D01*
X653180Y774664D01*
X653098Y774615D01*
X652999Y774566D01*
X652868Y774500D01*
X652704Y774418D01*
X652540Y774336D01*
X652360Y774238D01*
X651950Y774058D01*
X651523Y773861D01*
X651080Y773680D01*
X650670Y773549D01*
X650654Y773549D01*
X650621Y773533D01*
X650572Y773516D01*
X650490Y773500D01*
X650392Y773484D01*
X650277Y773451D01*
X650129Y773434D01*
X649982Y773402D01*
X649637Y773352D01*
X649244Y773303D01*
X648801Y773270D01*
X648325Y773254D01*
X648178Y773254D01*
X648063Y773270D01*
X647932Y773270D01*
X647768Y773287D01*
X647604Y773303D01*
X647423Y773320D01*
X647030Y773385D01*
X646620Y773484D01*
X646242Y773615D01*
X646062Y773697D01*
X645898Y773795D01*
X645882Y773795D01*
X645865Y773828D01*
X645767Y773894D01*
X645636Y774025D01*
X645472Y774205D01*
X645291Y774418D01*
X645127Y774697D01*
X644980Y775025D01*
X644881Y775402D01*
X644881Y775419D01*
X644881Y775452D01*
X644865Y775517D01*
X644865Y775599D01*
X644848Y775698D01*
X644848Y775812D01*
X644848Y775960D01*
X644848Y776124D01*
X644865Y776288D01*
X644881Y776485D01*
X644930Y776911D01*
X645029Y777387D01*
X645176Y777895D01*
X645176Y777912D01*
X645193Y777961D01*
X645226Y778043D01*
X645275Y778141D01*
X645324Y778272D01*
X645390Y778420D01*
X645455Y778584D01*
X645537Y778764D01*
X645750Y779158D01*
X645996Y779584D01*
X646292Y780011D01*
X646636Y780437D01*
X646652Y780454D01*
X646685Y780486D01*
X646734Y780536D01*
X646816Y780618D01*
X646915Y780716D01*
X647013Y780814D01*
X647144Y780929D01*
X647308Y781060D01*
X647653Y781323D01*
X648046Y781602D01*
X648506Y781864D01*
X648998Y782094D01*
X649014Y782094D01*
X649047Y782110D01*
X649112Y782143D01*
X649194Y782159D01*
X649293Y782192D01*
X649408Y782241D01*
X649555Y782274D01*
X649719Y782323D01*
X649900Y782356D01*
X650096Y782389D01*
X650310Y782438D01*
X650539Y782471D01*
X651048Y782520D01*
X651605Y782536D01*
X651966Y782536D01*
X652114Y782520D01*
X652114Y782520D02*
G37*
G36*
X637091Y782520D02*
X637239Y782520D01*
X637386Y782504D01*
X637764Y782454D01*
X638157Y782372D01*
X638551Y782258D01*
X638928Y782094D01*
X639076Y781995D01*
X639223Y781880D01*
X639256Y781848D01*
X639322Y781766D01*
X639420Y781602D01*
X639535Y781388D01*
X639584Y781257D01*
X639617Y781110D01*
X639650Y780929D01*
X639666Y780749D01*
X639682Y780552D01*
X639666Y780339D01*
X639650Y780093D01*
X639600Y779847D01*
X636927Y779699D01*
X636927Y779732D01*
X636944Y779798D01*
X636944Y779912D01*
X636944Y780044D01*
X636927Y780175D01*
X636911Y780322D01*
X636862Y780470D01*
X636780Y780585D01*
X636763Y780601D01*
X636730Y780634D01*
X636681Y780667D01*
X636599Y780732D01*
X636484Y780782D01*
X636337Y780814D01*
X636173Y780847D01*
X635960Y780864D01*
X635878Y780864D01*
X635796Y780847D01*
X635681Y780831D01*
X635435Y780782D01*
X635304Y780716D01*
X635172Y780650D01*
X635156Y780634D01*
X635123Y780618D01*
X635074Y780568D01*
X635008Y780519D01*
X634861Y780355D01*
X634812Y780257D01*
X634762Y780158D01*
X634762Y780142D01*
X634746Y780126D01*
X634746Y780027D01*
X634762Y779896D01*
X634779Y779830D01*
X634828Y779765D01*
X634861Y779732D01*
X634910Y779699D01*
X634976Y779650D01*
X635090Y779601D01*
X635238Y779552D01*
X635418Y779486D01*
X635648Y779437D01*
X635664Y779437D01*
X635730Y779420D01*
X635812Y779404D01*
X635927Y779371D01*
X636058Y779338D01*
X636222Y779289D01*
X636566Y779191D01*
X636960Y779076D01*
X637337Y778928D01*
X637518Y778863D01*
X637698Y778781D01*
X637846Y778715D01*
X637977Y778633D01*
X638010Y778617D01*
X638075Y778568D01*
X638190Y778486D01*
X638321Y778371D01*
X638469Y778223D01*
X638600Y778059D01*
X638698Y777862D01*
X638780Y777649D01*
X638780Y777616D01*
X638797Y777551D01*
X638813Y777420D01*
X638830Y777256D01*
X638830Y777059D01*
X638813Y776846D01*
X638780Y776583D01*
X638698Y776321D01*
X638698Y776304D01*
X638682Y776288D01*
X638666Y776239D01*
X638649Y776173D01*
X638567Y776009D01*
X638469Y775796D01*
X638321Y775550D01*
X638141Y775271D01*
X637928Y774992D01*
X637682Y774714D01*
X637649Y774681D01*
X637550Y774599D01*
X637403Y774468D01*
X637190Y774304D01*
X636944Y774123D01*
X636648Y773943D01*
X636320Y773779D01*
X635960Y773615D01*
X635943Y773615D01*
X635910Y773598D01*
X635861Y773582D01*
X635779Y773566D01*
X635697Y773533D01*
X635582Y773500D01*
X635451Y773467D01*
X635304Y773434D01*
X634959Y773369D01*
X634582Y773303D01*
X634139Y773270D01*
X633664Y773254D01*
X633450Y773254D01*
X633303Y773270D01*
X633106Y773287D01*
X632909Y773303D01*
X632680Y773320D01*
X632450Y773369D01*
X631958Y773467D01*
X631712Y773533D01*
X631482Y773615D01*
X631269Y773713D01*
X631072Y773844D01*
X630908Y773976D01*
X630777Y774123D01*
X630777Y774140D01*
X630761Y774172D01*
X630728Y774222D01*
X630695Y774287D01*
X630662Y774369D01*
X630613Y774468D01*
X630580Y774599D01*
X630531Y774730D01*
X630466Y775058D01*
X630433Y775452D01*
X630449Y775665D01*
X630466Y775878D01*
X630498Y776124D01*
X630548Y776370D01*
X633254Y776550D01*
X633254Y776518D01*
X633237Y776436D01*
X633221Y776321D01*
X633204Y776190D01*
X633204Y776026D01*
X633204Y775862D01*
X633221Y775698D01*
X633270Y775566D01*
X633286Y775550D01*
X633319Y775484D01*
X633385Y775402D01*
X633500Y775304D01*
X633631Y775189D01*
X633811Y775107D01*
X634041Y775042D01*
X634303Y775025D01*
X634402Y775025D01*
X634516Y775042D01*
X634664Y775058D01*
X634812Y775091D01*
X634992Y775140D01*
X635156Y775206D01*
X635320Y775288D01*
X635336Y775304D01*
X635386Y775337D01*
X635468Y775402D01*
X635550Y775468D01*
X635648Y775566D01*
X635730Y775681D01*
X635812Y775812D01*
X635861Y775944D01*
X635861Y775960D01*
X635878Y776009D01*
X635894Y776075D01*
X635894Y776157D01*
X635894Y776255D01*
X635878Y776354D01*
X635845Y776468D01*
X635779Y776567D01*
X635763Y776583D01*
X635730Y776616D01*
X635664Y776665D01*
X635550Y776731D01*
X635386Y776813D01*
X635156Y776911D01*
X635025Y776960D01*
X634877Y776993D01*
X634713Y777042D01*
X634533Y777092D01*
X634516Y777092D01*
X634467Y777108D01*
X634369Y777141D01*
X634254Y777157D01*
X634123Y777206D01*
X633975Y777256D01*
X633614Y777370D01*
X633237Y777534D01*
X632876Y777715D01*
X632696Y777813D01*
X632548Y777928D01*
X632401Y778043D01*
X632286Y778174D01*
X632270Y778207D01*
X632204Y778289D01*
X632138Y778436D01*
X632056Y778650D01*
X632007Y778896D01*
X631974Y779191D01*
X631974Y779355D01*
X632007Y779519D01*
X632040Y779699D01*
X632089Y779896D01*
X632089Y779912D01*
X632106Y779929D01*
X632138Y780011D01*
X632204Y780158D01*
X632286Y780322D01*
X632401Y780519D01*
X632548Y780749D01*
X632729Y780978D01*
X632942Y781208D01*
X632975Y781241D01*
X633057Y781306D01*
X633188Y781421D01*
X633368Y781569D01*
X633582Y781716D01*
X633844Y781880D01*
X634139Y782028D01*
X634467Y782176D01*
X634484Y782176D01*
X634516Y782192D01*
X634566Y782208D01*
X634631Y782225D01*
X634730Y782258D01*
X634844Y782290D01*
X634959Y782323D01*
X635107Y782356D01*
X635271Y782389D01*
X635451Y782422D01*
X635845Y782487D01*
X636304Y782520D01*
X636812Y782536D01*
X636976Y782536D01*
X637091Y782520D01*
X637091Y782520D02*
G37*
G36*
X546383Y782520D02*
X546530Y782520D01*
X546678Y782504D01*
X547055Y782454D01*
X547449Y782372D01*
X547842Y782258D01*
X548220Y782094D01*
X548367Y781995D01*
X548515Y781880D01*
X548548Y781848D01*
X548613Y781766D01*
X548712Y781602D01*
X548826Y781388D01*
X548876Y781257D01*
X548908Y781110D01*
X548941Y780929D01*
X548958Y780749D01*
X548974Y780552D01*
X548958Y780339D01*
X548941Y780093D01*
X548892Y779847D01*
X546219Y779699D01*
X546219Y779732D01*
X546235Y779798D01*
X546235Y779912D01*
X546235Y780044D01*
X546219Y780175D01*
X546202Y780322D01*
X546153Y780470D01*
X546071Y780585D01*
X546055Y780601D01*
X546022Y780634D01*
X545973Y780667D01*
X545891Y780732D01*
X545776Y780782D01*
X545628Y780814D01*
X545464Y780847D01*
X545251Y780864D01*
X545169Y780864D01*
X545087Y780847D01*
X544972Y780831D01*
X544726Y780782D01*
X544595Y780716D01*
X544464Y780650D01*
X544448Y780634D01*
X544415Y780618D01*
X544366Y780568D01*
X544300Y780519D01*
X544152Y780355D01*
X544103Y780257D01*
X544054Y780158D01*
X544054Y780142D01*
X544038Y780126D01*
X544038Y780027D01*
X544054Y779896D01*
X544070Y779830D01*
X544120Y779765D01*
X544152Y779732D01*
X544202Y779699D01*
X544267Y779650D01*
X544382Y779601D01*
X544530Y779552D01*
X544710Y779486D01*
X544940Y779437D01*
X544956Y779437D01*
X545022Y779420D01*
X545104Y779404D01*
X545218Y779371D01*
X545350Y779338D01*
X545514Y779289D01*
X545858Y779191D01*
X546252Y779076D01*
X546629Y778928D01*
X546809Y778863D01*
X546990Y778781D01*
X547137Y778715D01*
X547268Y778633D01*
X547301Y778617D01*
X547367Y778568D01*
X547482Y778486D01*
X547613Y778371D01*
X547760Y778223D01*
X547892Y778059D01*
X547990Y777862D01*
X548072Y777649D01*
X548072Y777616D01*
X548088Y777551D01*
X548105Y777420D01*
X548121Y777256D01*
X548121Y777059D01*
X548105Y776846D01*
X548072Y776583D01*
X547990Y776321D01*
X547990Y776304D01*
X547974Y776288D01*
X547957Y776239D01*
X547941Y776173D01*
X547859Y776009D01*
X547760Y775796D01*
X547613Y775550D01*
X547432Y775271D01*
X547219Y774992D01*
X546973Y774714D01*
X546940Y774681D01*
X546842Y774599D01*
X546694Y774468D01*
X546481Y774304D01*
X546235Y774123D01*
X545940Y773943D01*
X545612Y773779D01*
X545251Y773615D01*
X545235Y773615D01*
X545202Y773598D01*
X545153Y773582D01*
X545071Y773566D01*
X544989Y773533D01*
X544874Y773500D01*
X544743Y773467D01*
X544595Y773434D01*
X544251Y773369D01*
X543874Y773303D01*
X543431Y773270D01*
X542955Y773254D01*
X542742Y773254D01*
X542594Y773270D01*
X542398Y773287D01*
X542201Y773303D01*
X541971Y773320D01*
X541742Y773369D01*
X541250Y773467D01*
X541004Y773533D01*
X540774Y773615D01*
X540561Y773713D01*
X540364Y773844D01*
X540200Y773976D01*
X540069Y774123D01*
X540069Y774140D01*
X540052Y774172D01*
X540020Y774222D01*
X539987Y774287D01*
X539954Y774369D01*
X539905Y774468D01*
X539872Y774599D01*
X539823Y774730D01*
X539757Y775058D01*
X539724Y775452D01*
X539741Y775665D01*
X539757Y775878D01*
X539790Y776124D01*
X539839Y776370D01*
X542545Y776550D01*
X542545Y776518D01*
X542529Y776436D01*
X542512Y776321D01*
X542496Y776190D01*
X542496Y776026D01*
X542496Y775862D01*
X542512Y775698D01*
X542562Y775566D01*
X542578Y775550D01*
X542611Y775484D01*
X542676Y775402D01*
X542791Y775304D01*
X542922Y775189D01*
X543103Y775107D01*
X543332Y775042D01*
X543595Y775025D01*
X543693Y775025D01*
X543808Y775042D01*
X543956Y775058D01*
X544103Y775091D01*
X544284Y775140D01*
X544448Y775206D01*
X544612Y775288D01*
X544628Y775304D01*
X544677Y775337D01*
X544759Y775402D01*
X544841Y775468D01*
X544940Y775566D01*
X545022Y775681D01*
X545104Y775812D01*
X545153Y775944D01*
X545153Y775960D01*
X545169Y776009D01*
X545186Y776075D01*
X545186Y776157D01*
X545186Y776255D01*
X545169Y776354D01*
X545136Y776468D01*
X545071Y776567D01*
X545054Y776583D01*
X545022Y776616D01*
X544956Y776665D01*
X544841Y776731D01*
X544677Y776813D01*
X544448Y776911D01*
X544316Y776960D01*
X544169Y776993D01*
X544005Y777042D01*
X543824Y777092D01*
X543808Y777092D01*
X543759Y777108D01*
X543660Y777141D01*
X543546Y777157D01*
X543414Y777206D01*
X543267Y777256D01*
X542906Y777370D01*
X542529Y777534D01*
X542168Y777715D01*
X541988Y777813D01*
X541840Y777928D01*
X541692Y778043D01*
X541578Y778174D01*
X541561Y778207D01*
X541496Y778289D01*
X541430Y778436D01*
X541348Y778650D01*
X541299Y778896D01*
X541266Y779191D01*
X541266Y779355D01*
X541299Y779519D01*
X541332Y779699D01*
X541381Y779896D01*
X541381Y779912D01*
X541397Y779929D01*
X541430Y780011D01*
X541496Y780158D01*
X541578Y780322D01*
X541692Y780519D01*
X541840Y780749D01*
X542020Y780978D01*
X542234Y781208D01*
X542266Y781241D01*
X542348Y781306D01*
X542480Y781421D01*
X542660Y781569D01*
X542873Y781716D01*
X543136Y781880D01*
X543431Y782028D01*
X543759Y782176D01*
X543775Y782176D01*
X543808Y782192D01*
X543857Y782208D01*
X543923Y782225D01*
X544021Y782258D01*
X544136Y782290D01*
X544251Y782323D01*
X544398Y782356D01*
X544562Y782389D01*
X544743Y782422D01*
X545136Y782487D01*
X545596Y782520D01*
X546104Y782536D01*
X546268Y782536D01*
X546383Y782520D01*
X546383Y782520D02*
G37*
G36*
X663085Y773402D02*
X660461Y773402D01*
X658756Y778354D01*
X657083Y773402D01*
X654475Y773402D01*
X657526Y782389D01*
X660117Y782389D01*
X661822Y777403D01*
X663512Y782389D01*
X666136Y782389D01*
X663085Y773402D01*
X663085Y773402D02*
G37*
G36*
X572377Y773402D02*
X569753Y773402D01*
X568047Y778354D01*
X566374Y773402D01*
X563767Y773402D01*
X566817Y782389D01*
X569408Y782389D01*
X571114Y777403D01*
X572803Y782389D01*
X575427Y782389D01*
X572377Y773402D01*
X572377Y773402D02*
G37*
G36*
X561044Y782520D02*
X561225Y782504D01*
X561438Y782471D01*
X561668Y782438D01*
X561914Y782389D01*
X562160Y782323D01*
X562422Y782241D01*
X562668Y782143D01*
X562914Y782028D01*
X563160Y781880D01*
X563373Y781716D01*
X563570Y781536D01*
X563734Y781323D01*
X563750Y781306D01*
X563767Y781274D01*
X563800Y781192D01*
X563849Y781110D01*
X563898Y780978D01*
X563947Y780831D01*
X563996Y780650D01*
X564046Y780454D01*
X564078Y780224D01*
X564111Y779978D01*
X564111Y779699D01*
X564095Y779404D01*
X564062Y779076D01*
X564013Y778732D01*
X563914Y778354D01*
X563800Y777961D01*
X563800Y777944D01*
X563783Y777895D01*
X563750Y777813D01*
X563701Y777698D01*
X563652Y777567D01*
X563586Y777403D01*
X563504Y777239D01*
X563422Y777042D01*
X563226Y776632D01*
X562980Y776206D01*
X562701Y775780D01*
X562389Y775370D01*
X562373Y775353D01*
X562356Y775320D01*
X562307Y775271D01*
X562242Y775206D01*
X562160Y775124D01*
X562045Y775025D01*
X561799Y774796D01*
X561504Y774550D01*
X561159Y774287D01*
X560749Y774041D01*
X560323Y773812D01*
X560306Y773812D01*
X560274Y773795D01*
X560208Y773762D01*
X560110Y773730D01*
X559995Y773680D01*
X559864Y773631D01*
X559716Y773582D01*
X559536Y773533D01*
X559355Y773484D01*
X559142Y773434D01*
X558683Y773336D01*
X558174Y773270D01*
X557633Y773254D01*
X557387Y773254D01*
X557256Y773270D01*
X557108Y773287D01*
X556780Y773320D01*
X556403Y773369D01*
X556010Y773451D01*
X555632Y773566D01*
X555288Y773730D01*
X555272Y773730D01*
X555255Y773746D01*
X555157Y773828D01*
X555009Y773943D01*
X554845Y774107D01*
X554648Y774304D01*
X554468Y774582D01*
X554320Y774894D01*
X554189Y775255D01*
X554189Y775271D01*
X554173Y775304D01*
X554173Y775370D01*
X554156Y775452D01*
X554140Y775550D01*
X554140Y775665D01*
X554124Y775812D01*
X554124Y775976D01*
X554124Y776157D01*
X554140Y776354D01*
X554156Y776567D01*
X554189Y776813D01*
X554288Y777321D01*
X554370Y777584D01*
X554452Y777879D01*
X554468Y777912D01*
X554484Y777977D01*
X554534Y778092D01*
X554599Y778240D01*
X554681Y778420D01*
X554780Y778633D01*
X554894Y778879D01*
X555042Y779125D01*
X555190Y779404D01*
X555370Y779683D01*
X555567Y779962D01*
X555780Y780257D01*
X556010Y780536D01*
X556272Y780814D01*
X556551Y781060D01*
X556846Y781306D01*
X556862Y781323D01*
X556928Y781356D01*
X557010Y781421D01*
X557141Y781503D01*
X557289Y781585D01*
X557486Y781700D01*
X557699Y781815D01*
X557945Y781930D01*
X558207Y782044D01*
X558502Y782143D01*
X558814Y782258D01*
X559158Y782340D01*
X559519Y782422D01*
X559896Y782487D01*
X560274Y782520D01*
X560684Y782536D01*
X560897Y782536D01*
X561044Y782520D01*
X561044Y782520D02*
G37*
G36*
X594533Y782520D02*
X594714Y782504D01*
X594927Y782471D01*
X595156Y782438D01*
X595402Y782389D01*
X595648Y782323D01*
X595911Y782241D01*
X596157Y782143D01*
X596403Y782028D01*
X596649Y781880D01*
X596862Y781716D01*
X597059Y781536D01*
X597223Y781323D01*
X597239Y781306D01*
X597256Y781274D01*
X597288Y781192D01*
X597338Y781110D01*
X597387Y780978D01*
X597436Y780831D01*
X597485Y780650D01*
X597534Y780454D01*
X597567Y780224D01*
X597600Y779978D01*
X597600Y779699D01*
X597584Y779404D01*
X597551Y779076D01*
X597502Y778732D01*
X597403Y778354D01*
X597288Y777961D01*
X597288Y777944D01*
X597272Y777895D01*
X597239Y777813D01*
X597190Y777698D01*
X597141Y777567D01*
X597075Y777403D01*
X596993Y777239D01*
X596911Y777042D01*
X596714Y776632D01*
X596468Y776206D01*
X596190Y775780D01*
X595878Y775370D01*
X595862Y775353D01*
X595845Y775320D01*
X595796Y775271D01*
X595730Y775206D01*
X595648Y775124D01*
X595534Y775025D01*
X595288Y774796D01*
X594992Y774550D01*
X594648Y774287D01*
X594238Y774041D01*
X593812Y773812D01*
X593795Y773812D01*
X593762Y773795D01*
X593697Y773762D01*
X593598Y773730D01*
X593484Y773680D01*
X593352Y773631D01*
X593205Y773582D01*
X593024Y773533D01*
X592844Y773484D01*
X592631Y773434D01*
X592172Y773336D01*
X591663Y773270D01*
X591122Y773254D01*
X590876Y773254D01*
X590745Y773270D01*
X590597Y773287D01*
X590269Y773320D01*
X589892Y773369D01*
X589498Y773451D01*
X589121Y773566D01*
X588777Y773730D01*
X588760Y773730D01*
X588744Y773746D01*
X588646Y773828D01*
X588498Y773943D01*
X588334Y774107D01*
X588137Y774304D01*
X587957Y774582D01*
X587809Y774894D01*
X587678Y775255D01*
X587678Y775271D01*
X587662Y775304D01*
X587662Y775370D01*
X587645Y775452D01*
X587629Y775550D01*
X587629Y775665D01*
X587612Y775812D01*
X587612Y775976D01*
X587612Y776157D01*
X587629Y776354D01*
X587645Y776567D01*
X587678Y776813D01*
X587776Y777321D01*
X587858Y777584D01*
X587940Y777879D01*
X587957Y777912D01*
X587973Y777977D01*
X588022Y778092D01*
X588088Y778240D01*
X588170Y778420D01*
X588268Y778633D01*
X588383Y778879D01*
X588531Y779125D01*
X588678Y779404D01*
X588859Y779683D01*
X589056Y779962D01*
X589269Y780257D01*
X589498Y780536D01*
X589761Y780814D01*
X590040Y781060D01*
X590335Y781306D01*
X590351Y781323D01*
X590417Y781356D01*
X590499Y781421D01*
X590630Y781503D01*
X590778Y781585D01*
X590974Y781700D01*
X591188Y781815D01*
X591434Y781930D01*
X591696Y782044D01*
X591991Y782143D01*
X592303Y782258D01*
X592647Y782340D01*
X593008Y782422D01*
X593385Y782487D01*
X593762Y782520D01*
X594172Y782536D01*
X594386Y782536D01*
X594533Y782520D01*
X594533Y782520D02*
G37*
%LPC*%
G36*
X526703Y780044D02*
X524620Y776829D01*
X526588Y776829D01*
X526703Y780044D01*
X526703Y780044D02*
G37*
G36*
X517404Y780568D02*
X516617Y780568D01*
X515944Y778568D01*
X516748Y778568D01*
X516896Y778584D01*
X517076Y778600D01*
X517273Y778633D01*
X517470Y778682D01*
X517666Y778748D01*
X517830Y778830D01*
X517847Y778846D01*
X517896Y778879D01*
X517978Y778945D01*
X518060Y779027D01*
X518158Y779125D01*
X518257Y779256D01*
X518339Y779388D01*
X518404Y779552D01*
X518404Y779568D01*
X518421Y779617D01*
X518437Y779699D01*
X518454Y779798D01*
X518454Y779912D01*
X518454Y780044D01*
X518421Y780158D01*
X518372Y780273D01*
X518355Y780290D01*
X518339Y780322D01*
X518273Y780372D01*
X518191Y780421D01*
X518060Y780470D01*
X517896Y780519D01*
X517666Y780552D01*
X517404Y780568D01*
X517404Y780568D02*
G37*
G36*
X603717Y780568D02*
X602487Y780568D01*
X601864Y778748D01*
X603143Y778748D01*
X603225Y778764D01*
X603324Y778781D01*
X603455Y778797D01*
X603635Y778830D01*
X603832Y778863D01*
X603848Y778863D01*
X603881Y778879D01*
X603947Y778896D01*
X604012Y778912D01*
X604193Y778994D01*
X604275Y779060D01*
X604373Y779142D01*
X604390Y779158D01*
X604406Y779191D01*
X604455Y779224D01*
X604504Y779289D01*
X604619Y779453D01*
X604718Y779666D01*
X604718Y779683D01*
X604734Y779732D01*
X604750Y779814D01*
X604767Y779912D01*
X604767Y780011D01*
X604767Y780126D01*
X604734Y780224D01*
X604668Y780322D01*
X604652Y780339D01*
X604619Y780355D01*
X604570Y780404D01*
X604472Y780454D01*
X604357Y780486D01*
X604193Y780536D01*
X603980Y780552D01*
X603717Y780568D01*
X603717Y780568D02*
G37*
G36*
X559962Y780437D02*
X559880Y780437D01*
X559814Y780421D01*
X559667Y780404D01*
X559454Y780355D01*
X559208Y780290D01*
X558945Y780175D01*
X558683Y780027D01*
X558404Y779830D01*
X558371Y779798D01*
X558289Y779716D01*
X558158Y779568D01*
X557994Y779371D01*
X557896Y779240D01*
X557814Y779092D01*
X557715Y778928D01*
X557617Y778764D01*
X557502Y778568D01*
X557404Y778354D01*
X557322Y778125D01*
X557223Y777879D01*
X557223Y777862D01*
X557207Y777813D01*
X557190Y777748D01*
X557158Y777666D01*
X557125Y777551D01*
X557092Y777420D01*
X557026Y777124D01*
X556994Y776813D01*
X556961Y776485D01*
X556994Y776173D01*
X557026Y776042D01*
X557076Y775927D01*
X557092Y775894D01*
X557141Y775829D01*
X557223Y775747D01*
X557338Y775632D01*
X557502Y775517D01*
X557699Y775435D01*
X557961Y775370D01*
X558256Y775337D01*
X558338Y775337D01*
X558404Y775353D01*
X558584Y775370D01*
X558798Y775402D01*
X559044Y775484D01*
X559306Y775583D01*
X559585Y775714D01*
X559847Y775911D01*
X559880Y775944D01*
X559962Y776026D01*
X560028Y776091D01*
X560093Y776173D01*
X560175Y776272D01*
X560257Y776386D01*
X560339Y776518D01*
X560438Y776665D01*
X560536Y776846D01*
X560651Y777026D01*
X560749Y777239D01*
X560848Y777469D01*
X560946Y777715D01*
X561044Y777994D01*
X561044Y778010D01*
X561061Y778043D01*
X561077Y778108D01*
X561110Y778207D01*
X561126Y778305D01*
X561159Y778420D01*
X561225Y778699D01*
X561258Y778994D01*
X561274Y779306D01*
X561241Y779601D01*
X561208Y779732D01*
X561159Y779847D01*
X561143Y779880D01*
X561094Y779945D01*
X561012Y780027D01*
X560897Y780142D01*
X560733Y780257D01*
X560520Y780339D01*
X560274Y780404D01*
X559962Y780437D01*
X559962Y780437D02*
G37*
G36*
X593451Y780437D02*
X593369Y780437D01*
X593303Y780421D01*
X593156Y780404D01*
X592942Y780355D01*
X592696Y780290D01*
X592434Y780175D01*
X592172Y780027D01*
X591893Y779830D01*
X591860Y779798D01*
X591778Y779716D01*
X591647Y779568D01*
X591483Y779371D01*
X591384Y779240D01*
X591302Y779092D01*
X591204Y778928D01*
X591106Y778764D01*
X590991Y778568D01*
X590892Y778354D01*
X590810Y778125D01*
X590712Y777879D01*
X590712Y777862D01*
X590696Y777813D01*
X590679Y777748D01*
X590646Y777666D01*
X590614Y777551D01*
X590581Y777420D01*
X590515Y777124D01*
X590482Y776813D01*
X590450Y776485D01*
X590482Y776173D01*
X590515Y776042D01*
X590564Y775927D01*
X590581Y775894D01*
X590630Y775829D01*
X590712Y775747D01*
X590827Y775632D01*
X590991Y775517D01*
X591188Y775435D01*
X591450Y775370D01*
X591745Y775337D01*
X591827Y775337D01*
X591893Y775353D01*
X592073Y775370D01*
X592286Y775402D01*
X592532Y775484D01*
X592795Y775583D01*
X593074Y775714D01*
X593336Y775911D01*
X593369Y775944D01*
X593451Y776026D01*
X593516Y776091D01*
X593582Y776173D01*
X593664Y776272D01*
X593746Y776386D01*
X593828Y776518D01*
X593926Y776665D01*
X594025Y776846D01*
X594140Y777026D01*
X594238Y777239D01*
X594336Y777469D01*
X594435Y777715D01*
X594533Y777994D01*
X594533Y778010D01*
X594550Y778043D01*
X594566Y778108D01*
X594599Y778207D01*
X594615Y778305D01*
X594648Y778420D01*
X594714Y778699D01*
X594746Y778994D01*
X594763Y779306D01*
X594730Y779601D01*
X594697Y779732D01*
X594648Y779847D01*
X594632Y779880D01*
X594582Y779945D01*
X594500Y780027D01*
X594386Y780142D01*
X594222Y780257D01*
X594008Y780339D01*
X593762Y780404D01*
X593451Y780437D01*
X593451Y780437D02*
G37*
G36*
X617247Y780355D02*
X616362Y780355D01*
X614689Y775452D01*
X615525Y775452D01*
X615673Y775468D01*
X615870Y775468D01*
X616083Y775501D01*
X616296Y775534D01*
X616493Y775566D01*
X616673Y775632D01*
X616690Y775648D01*
X616755Y775665D01*
X616837Y775714D01*
X616936Y775796D01*
X617067Y775878D01*
X617214Y775993D01*
X617346Y776140D01*
X617493Y776304D01*
X617510Y776321D01*
X617559Y776403D01*
X617624Y776518D01*
X617723Y776682D01*
X617838Y776895D01*
X617969Y777174D01*
X618100Y777485D01*
X618231Y777862D01*
X618231Y777879D01*
X618248Y777928D01*
X618280Y777994D01*
X618297Y778092D01*
X618330Y778207D01*
X618379Y778338D01*
X618444Y778650D01*
X618494Y778961D01*
X618526Y779289D01*
X618510Y779584D01*
X618477Y779699D01*
X618428Y779814D01*
X618412Y779830D01*
X618362Y779896D01*
X618280Y779978D01*
X618149Y780093D01*
X617969Y780191D01*
X617723Y780273D01*
X617575Y780306D01*
X617428Y780339D01*
X617247Y780355D01*
X617247Y780355D02*
G37*
%LPD*%
D12*
X421201Y404116D02*
X421784Y404700D01*
X422950Y404700D01*
X423533Y404116D01*
X423533Y401784D01*
X422950Y401201D01*
X421784Y401201D01*
X421201Y401784D01*
X421201Y404116D01*
X424700Y401201D02*
X425866Y401201D01*
X425283Y401201D01*
X425283Y404700D01*
X424700Y404116D01*
X431201Y404116D02*
X431784Y404700D01*
X432950Y404700D01*
X433533Y404116D01*
X433533Y401784D01*
X432950Y401201D01*
X431784Y401201D01*
X431201Y401784D01*
X431201Y404116D01*
X437032Y401201D02*
X434700Y401201D01*
X437032Y403533D01*
X437032Y404116D01*
X436449Y404700D01*
X435283Y404700D01*
X434700Y404116D01*
X441201Y404116D02*
X441784Y404700D01*
X442950Y404700D01*
X443533Y404116D01*
X443533Y401784D01*
X442950Y401201D01*
X441784Y401201D01*
X441201Y401784D01*
X441201Y404116D01*
X444700Y404116D02*
X445283Y404700D01*
X446449Y404700D01*
X447032Y404116D01*
X447032Y403533D01*
X446449Y402950D01*
X445866Y402950D01*
X446449Y402950D01*
X447032Y402367D01*
X447032Y401784D01*
X446449Y401201D01*
X445283Y401201D01*
X444700Y401784D01*
X451201Y404116D02*
X451784Y404700D01*
X452950Y404700D01*
X453533Y404116D01*
X453533Y401784D01*
X452950Y401201D01*
X451784Y401201D01*
X451201Y401784D01*
X451201Y404116D01*
X456449Y401201D02*
X456449Y404700D01*
X454700Y402950D01*
X457032Y402950D01*
X461201Y404116D02*
X461784Y404700D01*
X462950Y404700D01*
X463533Y404116D01*
X463533Y401784D01*
X462950Y401201D01*
X461784Y401201D01*
X461201Y401784D01*
X461201Y404116D01*
X467032Y404700D02*
X464700Y404700D01*
X464700Y402950D01*
X465866Y403533D01*
X466449Y403533D01*
X467032Y402950D01*
X467032Y401784D01*
X466449Y401201D01*
X465283Y401201D01*
X464700Y401784D01*
X471201Y404116D02*
X471784Y404700D01*
X472950Y404700D01*
X473533Y404116D01*
X473533Y401784D01*
X472950Y401201D01*
X471784Y401201D01*
X471201Y401784D01*
X471201Y404116D01*
X477032Y404700D02*
X475866Y404116D01*
X474700Y402950D01*
X474700Y401784D01*
X475283Y401201D01*
X476449Y401201D01*
X477032Y401784D01*
X477032Y402367D01*
X476449Y402950D01*
X474700Y402950D01*
X481201Y404116D02*
X481784Y404700D01*
X482950Y404700D01*
X483533Y404116D01*
X483533Y401784D01*
X482950Y401201D01*
X481784Y401201D01*
X481201Y401784D01*
X481201Y404116D01*
X484700Y404700D02*
X487032Y404700D01*
X487032Y404116D01*
X484700Y401784D01*
X484700Y401201D01*
X491201Y404116D02*
X491784Y404700D01*
X492950Y404700D01*
X493533Y404116D01*
X493533Y401784D01*
X492950Y401201D01*
X491784Y401201D01*
X491201Y401784D01*
X491201Y404116D01*
X494700Y404116D02*
X495283Y404700D01*
X496449Y404700D01*
X497032Y404116D01*
X497032Y403533D01*
X496449Y402950D01*
X497032Y402367D01*
X497032Y401784D01*
X496449Y401201D01*
X495283Y401201D01*
X494700Y401784D01*
X494700Y402367D01*
X495283Y402950D01*
X494700Y403533D01*
X494700Y404116D01*
X495283Y402950D02*
X496449Y402950D01*
X501201Y404116D02*
X501784Y404700D01*
X502950Y404700D01*
X503533Y404116D01*
X503533Y401784D01*
X502950Y401201D01*
X501784Y401201D01*
X501201Y401784D01*
X501201Y404116D01*
X504700Y401784D02*
X505283Y401201D01*
X506449Y401201D01*
X507032Y401784D01*
X507032Y404116D01*
X506449Y404700D01*
X505283Y404700D01*
X504700Y404116D01*
X504700Y403533D01*
X505283Y402950D01*
X507032Y402950D01*
X511201Y401201D02*
X512367Y401201D01*
X511784Y401201D01*
X511784Y404700D01*
X511201Y404116D01*
X514116Y404116D02*
X514700Y404700D01*
X515866Y404700D01*
X516449Y404116D01*
X516449Y401784D01*
X515866Y401201D01*
X514700Y401201D01*
X514116Y401784D01*
X514116Y404116D01*
X521201Y401201D02*
X522367Y401201D01*
X521784Y401201D01*
X521784Y404700D01*
X521201Y404116D01*
X524117Y401201D02*
X525283Y401201D01*
X524700Y401201D01*
X524700Y404700D01*
X524117Y404116D01*
X531201Y401201D02*
X532367Y401201D01*
X531784Y401201D01*
X531784Y404700D01*
X531201Y404116D01*
X536449Y401201D02*
X534117Y401201D01*
X536449Y403533D01*
X536449Y404116D01*
X535866Y404700D01*
X534700Y404700D01*
X534117Y404116D01*
X541201Y401201D02*
X542367Y401201D01*
X541784Y401201D01*
X541784Y404700D01*
X541201Y404116D01*
X544116Y404116D02*
X544700Y404700D01*
X545866Y404700D01*
X546449Y404116D01*
X546449Y403533D01*
X545866Y402950D01*
X545283Y402950D01*
X545866Y402950D01*
X546449Y402367D01*
X546449Y401784D01*
X545866Y401201D01*
X544700Y401201D01*
X544116Y401784D01*
X551201Y401201D02*
X552367Y401201D01*
X551784Y401201D01*
X551784Y404700D01*
X551201Y404116D01*
X555866Y401201D02*
X555866Y404700D01*
X554116Y402950D01*
X556449Y402950D01*
X561201Y401201D02*
X562367Y401201D01*
X561784Y401201D01*
X561784Y404700D01*
X561201Y404116D01*
X566449Y404700D02*
X564116Y404700D01*
X564116Y402950D01*
X565283Y403533D01*
X565866Y403533D01*
X566449Y402950D01*
X566449Y401784D01*
X565866Y401201D01*
X564700Y401201D01*
X564116Y401784D01*
X571201Y401201D02*
X572367Y401201D01*
X571784Y401201D01*
X571784Y404700D01*
X571201Y404116D01*
X576449Y404700D02*
X575283Y404116D01*
X574117Y402950D01*
X574117Y401784D01*
X574700Y401201D01*
X575866Y401201D01*
X576449Y401784D01*
X576449Y402367D01*
X575866Y402950D01*
X574117Y402950D01*
X581201Y401201D02*
X582367Y401201D01*
X581784Y401201D01*
X581784Y404700D01*
X581201Y404116D01*
X584117Y404700D02*
X586449Y404700D01*
X586449Y404116D01*
X584117Y401784D01*
X584117Y401201D01*
X591201Y401201D02*
X592367Y401201D01*
X591784Y401201D01*
X591784Y404700D01*
X591201Y404116D01*
X594116Y404116D02*
X594700Y404700D01*
X595866Y404700D01*
X596449Y404116D01*
X596449Y403533D01*
X595866Y402950D01*
X596449Y402367D01*
X596449Y401784D01*
X595866Y401201D01*
X594700Y401201D01*
X594116Y401784D01*
X594116Y402367D01*
X594700Y402950D01*
X594116Y403533D01*
X594116Y404116D01*
X594700Y402950D02*
X595866Y402950D01*
X601201Y401201D02*
X602367Y401201D01*
X601784Y401201D01*
X601784Y404700D01*
X601201Y404116D01*
X604116Y401784D02*
X604700Y401201D01*
X605866Y401201D01*
X606449Y401784D01*
X606449Y404116D01*
X605866Y404700D01*
X604700Y404700D01*
X604116Y404116D01*
X604116Y403533D01*
X604700Y402950D01*
X606449Y402950D01*
X613533Y401201D02*
X611201Y401201D01*
X613533Y403533D01*
X613533Y404116D01*
X612950Y404700D01*
X611784Y404700D01*
X611201Y404116D01*
X614700Y404116D02*
X615283Y404700D01*
X616449Y404700D01*
X617032Y404116D01*
X617032Y401784D01*
X616449Y401201D01*
X615283Y401201D01*
X614700Y401784D01*
X614700Y404116D01*
X623533Y401201D02*
X621201Y401201D01*
X623533Y403533D01*
X623533Y404116D01*
X622950Y404700D01*
X621784Y404700D01*
X621201Y404116D01*
X624700Y401201D02*
X625866Y401201D01*
X625283Y401201D01*
X625283Y404700D01*
X624700Y404116D01*
X633533Y401201D02*
X631201Y401201D01*
X633533Y403533D01*
X633533Y404116D01*
X632950Y404700D01*
X631784Y404700D01*
X631201Y404116D01*
X637032Y401201D02*
X634700Y401201D01*
X637032Y403533D01*
X637032Y404116D01*
X636449Y404700D01*
X635283Y404700D01*
X634700Y404116D01*
X643533Y401201D02*
X641201Y401201D01*
X643533Y403533D01*
X643533Y404116D01*
X642950Y404700D01*
X641784Y404700D01*
X641201Y404116D01*
X644700Y404116D02*
X645283Y404700D01*
X646449Y404700D01*
X647032Y404116D01*
X647032Y403533D01*
X646449Y402950D01*
X645866Y402950D01*
X646449Y402950D01*
X647032Y402367D01*
X647032Y401784D01*
X646449Y401201D01*
X645283Y401201D01*
X644700Y401784D01*
X653533Y401201D02*
X651201Y401201D01*
X653533Y403533D01*
X653533Y404116D01*
X652950Y404700D01*
X651784Y404700D01*
X651201Y404116D01*
X656449Y401201D02*
X656449Y404700D01*
X654700Y402950D01*
X657032Y402950D01*
X663533Y401201D02*
X661201Y401201D01*
X663533Y403533D01*
X663533Y404116D01*
X662950Y404700D01*
X661784Y404700D01*
X661201Y404116D01*
X667032Y404700D02*
X664700Y404700D01*
X664700Y402950D01*
X665866Y403533D01*
X666449Y403533D01*
X667032Y402950D01*
X667032Y401784D01*
X666449Y401201D01*
X665283Y401201D01*
X664700Y401784D01*
X673533Y401201D02*
X671201Y401201D01*
X673533Y403533D01*
X673533Y404116D01*
X672950Y404700D01*
X671784Y404700D01*
X671201Y404116D01*
X677032Y404700D02*
X675866Y404116D01*
X674700Y402950D01*
X674700Y401784D01*
X675283Y401201D01*
X676449Y401201D01*
X677032Y401784D01*
X677032Y402367D01*
X676449Y402950D01*
X674700Y402950D01*
X683533Y401201D02*
X681201Y401201D01*
X683533Y403533D01*
X683533Y404116D01*
X682950Y404700D01*
X681784Y404700D01*
X681201Y404116D01*
X684700Y404700D02*
X687032Y404700D01*
X687032Y404116D01*
X684700Y401784D01*
X684700Y401201D01*
X693533Y401201D02*
X691201Y401201D01*
X693533Y403533D01*
X693533Y404116D01*
X692950Y404700D01*
X691784Y404700D01*
X691201Y404116D01*
X694700Y404116D02*
X695283Y404700D01*
X696449Y404700D01*
X697032Y404116D01*
X697032Y403533D01*
X696449Y402950D01*
X697032Y402367D01*
X697032Y401784D01*
X696449Y401201D01*
X695283Y401201D01*
X694700Y401784D01*
X694700Y402367D01*
X695283Y402950D01*
X694700Y403533D01*
X694700Y404116D01*
X695283Y402950D02*
X696449Y402950D01*
X703533Y401201D02*
X701201Y401201D01*
X703533Y403533D01*
X703533Y404116D01*
X702950Y404700D01*
X701784Y404700D01*
X701201Y404116D01*
X704700Y401784D02*
X705283Y401201D01*
X706449Y401201D01*
X707032Y401784D01*
X707032Y404116D01*
X706449Y404700D01*
X705283Y404700D01*
X704700Y404116D01*
X704700Y403533D01*
X705283Y402950D01*
X707032Y402950D01*
X711201Y404116D02*
X711784Y404700D01*
X712950Y404700D01*
X713533Y404116D01*
X713533Y403533D01*
X712950Y402950D01*
X712367Y402950D01*
X712950Y402950D01*
X713533Y402367D01*
X713533Y401784D01*
X712950Y401201D01*
X711784Y401201D01*
X711201Y401784D01*
X714700Y404116D02*
X715283Y404700D01*
X716449Y404700D01*
X717032Y404116D01*
X717032Y401784D01*
X716449Y401201D01*
X715283Y401201D01*
X714700Y401784D01*
X714700Y404116D01*
X721201Y404116D02*
X721784Y404700D01*
X722950Y404700D01*
X723533Y404116D01*
X723533Y403533D01*
X722950Y402950D01*
X722367Y402950D01*
X722950Y402950D01*
X723533Y402367D01*
X723533Y401784D01*
X722950Y401201D01*
X721784Y401201D01*
X721201Y401784D01*
X724700Y401201D02*
X725866Y401201D01*
X725283Y401201D01*
X725283Y404700D01*
X724700Y404116D01*
X731201Y404116D02*
X731784Y404700D01*
X732950Y404700D01*
X733533Y404116D01*
X733533Y403533D01*
X732950Y402950D01*
X732367Y402950D01*
X732950Y402950D01*
X733533Y402367D01*
X733533Y401784D01*
X732950Y401201D01*
X731784Y401201D01*
X731201Y401784D01*
X737032Y401201D02*
X734700Y401201D01*
X737032Y403533D01*
X737032Y404116D01*
X736449Y404700D01*
X735283Y404700D01*
X734700Y404116D01*
X741201Y404116D02*
X741784Y404700D01*
X742950Y404700D01*
X743533Y404116D01*
X743533Y403533D01*
X742950Y402950D01*
X742367Y402950D01*
X742950Y402950D01*
X743533Y402367D01*
X743533Y401784D01*
X742950Y401201D01*
X741784Y401201D01*
X741201Y401784D01*
X744700Y404116D02*
X745283Y404700D01*
X746449Y404700D01*
X747032Y404116D01*
X747032Y403533D01*
X746449Y402950D01*
X745866Y402950D01*
X746449Y402950D01*
X747032Y402367D01*
X747032Y401784D01*
X746449Y401201D01*
X745283Y401201D01*
X744700Y401784D01*
X751201Y404116D02*
X751784Y404700D01*
X752950Y404700D01*
X753533Y404116D01*
X753533Y403533D01*
X752950Y402950D01*
X752367Y402950D01*
X752950Y402950D01*
X753533Y402367D01*
X753533Y401784D01*
X752950Y401201D01*
X751784Y401201D01*
X751201Y401784D01*
X756449Y401201D02*
X756449Y404700D01*
X754700Y402950D01*
X757032Y402950D01*
X414701Y411701D02*
X414701Y414325D01*
X416013Y415636D01*
X417325Y414325D01*
X417325Y411701D01*
X417325Y413669D01*
X414701Y413669D01*
X414701Y425636D02*
X414701Y421701D01*
X416669Y421701D01*
X417325Y422357D01*
X417325Y423013D01*
X416669Y423669D01*
X414701Y423669D01*
X416669Y423669D01*
X417325Y424325D01*
X417325Y424980D01*
X416669Y425636D01*
X414701Y425636D01*
X417325Y434980D02*
X416669Y435637D01*
X415357Y435637D01*
X414701Y434980D01*
X414701Y432357D01*
X415357Y431701D01*
X416669Y431701D01*
X417325Y432357D01*
X414701Y445637D02*
X414701Y441701D01*
X416669Y441701D01*
X417325Y442357D01*
X417325Y444980D01*
X416669Y445637D01*
X414701Y445637D01*
X417325Y455637D02*
X414701Y455637D01*
X414701Y451701D01*
X417325Y451701D01*
X414701Y453669D02*
X416013Y453669D01*
X417325Y465636D02*
X414701Y465636D01*
X414701Y463669D01*
X416013Y463669D01*
X414701Y463669D01*
X414701Y461701D01*
X417325Y474980D02*
X416669Y475636D01*
X415357Y475636D01*
X414701Y474980D01*
X414701Y472357D01*
X415357Y471701D01*
X416669Y471701D01*
X417325Y472357D01*
X417325Y473669D01*
X416013Y473669D01*
X414701Y485637D02*
X414701Y481701D01*
X414701Y483669D01*
X417325Y483669D01*
X417325Y485637D01*
X417325Y481701D01*
X415701Y495637D02*
X417013Y495637D01*
X416357Y495637D01*
X416357Y491701D01*
X415701Y491701D01*
X417013Y491701D01*
X417325Y505637D02*
X416013Y505637D01*
X416669Y505637D01*
X416669Y502357D01*
X416013Y501701D01*
X415357Y501701D01*
X414701Y502357D01*
X414701Y515636D02*
X414701Y511701D01*
X414701Y513013D01*
X417325Y515636D01*
X415357Y513669D01*
X417325Y511701D01*
X414701Y525636D02*
X414701Y521701D01*
X417325Y521701D01*
X414701Y531701D02*
X414701Y535637D01*
X416013Y534325D01*
X417325Y535637D01*
X417325Y531701D01*
X414701Y541701D02*
X414701Y545637D01*
X417325Y541701D01*
X417325Y545637D01*
X416669Y555637D02*
X415357Y555637D01*
X414701Y554981D01*
X414701Y552357D01*
X415357Y551701D01*
X416669Y551701D01*
X417325Y552357D01*
X417325Y554981D01*
X416669Y555637D01*
X414701Y561701D02*
X414701Y565636D01*
X416669Y565636D01*
X417325Y564981D01*
X417325Y563669D01*
X416669Y563013D01*
X414701Y563013D01*
X417325Y572357D02*
X417325Y574980D01*
X416669Y575636D01*
X415357Y575636D01*
X414701Y574980D01*
X414701Y572357D01*
X415357Y571701D01*
X416669Y571701D01*
X416013Y573013D02*
X417325Y571701D01*
X416669Y571701D02*
X417325Y572357D01*
X414701Y581701D02*
X414701Y585637D01*
X416669Y585637D01*
X417325Y584980D01*
X417325Y583669D01*
X416669Y583013D01*
X414701Y583013D01*
X416013Y583013D02*
X417325Y581701D01*
X417325Y594980D02*
X416669Y595637D01*
X415357Y595637D01*
X414701Y594980D01*
X414701Y594325D01*
X415357Y593669D01*
X416669Y593669D01*
X417325Y593013D01*
X417325Y592357D01*
X416669Y591701D01*
X415357Y591701D01*
X414701Y592357D01*
X414701Y605637D02*
X417325Y605637D01*
X416013Y605637D01*
X416013Y601701D01*
X414701Y615636D02*
X414701Y612357D01*
X415357Y611701D01*
X416669Y611701D01*
X417325Y612357D01*
X417325Y615636D01*
X414701Y625636D02*
X414701Y623013D01*
X416013Y621701D01*
X417325Y623013D01*
X417325Y625636D01*
X414701Y635637D02*
X414701Y631701D01*
X416013Y633013D01*
X417325Y631701D01*
X417325Y635637D01*
X414701Y645637D02*
X417325Y641701D01*
X417325Y645637D02*
X414701Y641701D01*
X414701Y655637D02*
X414701Y654981D01*
X416013Y653669D01*
X417325Y654981D01*
X417325Y655637D01*
X416013Y653669D02*
X416013Y651701D01*
X414701Y665636D02*
X417325Y665636D01*
X417325Y664981D01*
X414701Y662357D01*
X414701Y661701D01*
X417325Y661701D01*
X414701Y671701D02*
X414701Y674325D01*
X416013Y675636D01*
X417325Y674325D01*
X417325Y671701D01*
X417325Y673669D01*
X414701Y673669D01*
X414701Y685637D02*
X414701Y681701D01*
X416669Y681701D01*
X417325Y682357D01*
X417325Y683013D01*
X416669Y683669D01*
X414701Y683669D01*
X416669Y683669D01*
X417325Y684325D01*
X417325Y684980D01*
X416669Y685637D01*
X414701Y685637D01*
X417325Y694980D02*
X416669Y695637D01*
X415357Y695637D01*
X414701Y694980D01*
X414701Y692357D01*
X415357Y691701D01*
X416669Y691701D01*
X417325Y692357D01*
X414701Y705637D02*
X414701Y701701D01*
X416669Y701701D01*
X417325Y702357D01*
X417325Y704981D01*
X416669Y705637D01*
X414701Y705637D01*
X417325Y715636D02*
X414701Y715636D01*
X414701Y711701D01*
X417325Y711701D01*
X414701Y713669D02*
X416013Y713669D01*
X417325Y725636D02*
X414701Y725636D01*
X414701Y723669D01*
X416013Y723669D01*
X414701Y723669D01*
X414701Y721701D01*
X417325Y734980D02*
X416669Y735637D01*
X415357Y735637D01*
X414701Y734980D01*
X414701Y732357D01*
X415357Y731701D01*
X416669Y731701D01*
X417325Y732357D01*
X417325Y733669D01*
X416013Y733669D01*
X414701Y745637D02*
X414701Y741701D01*
X414701Y743669D01*
X417325Y743669D01*
X417325Y745637D01*
X417325Y741701D01*
X415701Y755637D02*
X417013Y755637D01*
X416357Y755637D01*
X416357Y751701D01*
X415701Y751701D01*
X417013Y751701D01*
X417325Y765636D02*
X416013Y765636D01*
X416669Y765636D01*
X416669Y762357D01*
X416013Y761701D01*
X415357Y761701D01*
X414701Y762357D01*
X764325Y766137D02*
X763013Y766137D01*
X763669Y766137D01*
X763669Y762857D01*
X763013Y762201D01*
X762357Y762201D01*
X761701Y762857D01*
X762701Y755637D02*
X764013Y755637D01*
X763357Y755637D01*
X763357Y751701D01*
X762701Y751701D01*
X764013Y751701D01*
X761701Y746137D02*
X761701Y742201D01*
X761701Y744169D01*
X764325Y744169D01*
X764325Y746137D01*
X764325Y742201D01*
X764325Y735480D02*
X763669Y736136D01*
X762357Y736136D01*
X761701Y735480D01*
X761701Y732857D01*
X762357Y732201D01*
X763669Y732201D01*
X764325Y732857D01*
X764325Y734169D01*
X763013Y734169D01*
X764325Y726136D02*
X761701Y726136D01*
X761701Y724169D01*
X763013Y724169D01*
X761701Y724169D01*
X761701Y722201D01*
X764325Y716137D02*
X761701Y716137D01*
X761701Y712201D01*
X764325Y712201D01*
X761701Y714169D02*
X763013Y714169D01*
X761701Y706137D02*
X761701Y702201D01*
X763669Y702201D01*
X764325Y702857D01*
X764325Y705480D01*
X763669Y706137D01*
X761701Y706137D01*
X764325Y695480D02*
X763669Y696137D01*
X762357Y696137D01*
X761701Y695480D01*
X761701Y692857D01*
X762357Y692201D01*
X763669Y692201D01*
X764325Y692857D01*
X761701Y686136D02*
X761701Y682201D01*
X763669Y682201D01*
X764325Y682857D01*
X764325Y683513D01*
X763669Y684169D01*
X761701Y684169D01*
X763669Y684169D01*
X764325Y684825D01*
X764325Y685480D01*
X763669Y686136D01*
X761701Y686136D01*
X761701Y672201D02*
X761701Y674825D01*
X763013Y676136D01*
X764325Y674825D01*
X764325Y672201D01*
X764325Y674169D01*
X761701Y674169D01*
X761701Y666137D02*
X764325Y666137D01*
X764325Y665481D01*
X761701Y662857D01*
X761701Y662201D01*
X764325Y662201D01*
X761701Y656137D02*
X761701Y655480D01*
X763013Y654169D01*
X764325Y655480D01*
X764325Y656137D01*
X763013Y654169D02*
X763013Y652201D01*
X761701Y646137D02*
X764325Y642201D01*
X764325Y646137D02*
X761701Y642201D01*
X761701Y636136D02*
X761701Y632201D01*
X763013Y633513D01*
X764325Y632201D01*
X764325Y636136D01*
X761701Y626136D02*
X761701Y623513D01*
X763013Y622201D01*
X764325Y623513D01*
X764325Y626136D01*
X761701Y616137D02*
X761701Y612857D01*
X762357Y612201D01*
X763669Y612201D01*
X764325Y612857D01*
X764325Y616137D01*
X761701Y606137D02*
X764325Y606137D01*
X763013Y606137D01*
X763013Y602201D01*
X764325Y595480D02*
X763669Y596137D01*
X762357Y596137D01*
X761701Y595480D01*
X761701Y594825D01*
X762357Y594169D01*
X763669Y594169D01*
X764325Y593513D01*
X764325Y592857D01*
X763669Y592201D01*
X762357Y592201D01*
X761701Y592857D01*
X761701Y582201D02*
X761701Y586136D01*
X763669Y586136D01*
X764325Y585480D01*
X764325Y584169D01*
X763669Y583513D01*
X761701Y583513D01*
X763013Y583513D02*
X764325Y582201D01*
X764325Y572857D02*
X764325Y575481D01*
X763669Y576136D01*
X762357Y576136D01*
X761701Y575481D01*
X761701Y572857D01*
X762357Y572201D01*
X763669Y572201D01*
X763013Y573513D02*
X764325Y572201D01*
X763669Y572201D02*
X764325Y572857D01*
X761701Y562201D02*
X761701Y566137D01*
X763669Y566137D01*
X764325Y565481D01*
X764325Y564169D01*
X763669Y563513D01*
X761701Y563513D01*
X763669Y556137D02*
X762357Y556137D01*
X761701Y555480D01*
X761701Y552857D01*
X762357Y552201D01*
X763669Y552201D01*
X764325Y552857D01*
X764325Y555480D01*
X763669Y556137D01*
X761701Y542201D02*
X761701Y546137D01*
X764325Y542201D01*
X764325Y546137D01*
X761701Y532201D02*
X761701Y536136D01*
X763013Y534825D01*
X764325Y536136D01*
X764325Y532201D01*
X761701Y526136D02*
X761701Y522201D01*
X764325Y522201D01*
X761701Y516137D02*
X761701Y512201D01*
X761701Y513513D01*
X764325Y516137D01*
X762357Y514169D01*
X764325Y512201D01*
X764325Y506137D02*
X763013Y506137D01*
X763669Y506137D01*
X763669Y502857D01*
X763013Y502201D01*
X762357Y502201D01*
X761701Y502857D01*
X762701Y496636D02*
X764013Y496636D01*
X763357Y496636D01*
X763357Y492701D01*
X762701Y492701D01*
X764013Y492701D01*
X761701Y486136D02*
X761701Y482201D01*
X761701Y484169D01*
X764325Y484169D01*
X764325Y486136D01*
X764325Y482201D01*
X764325Y475481D02*
X763669Y476136D01*
X762357Y476136D01*
X761701Y475481D01*
X761701Y472857D01*
X762357Y472201D01*
X763669Y472201D01*
X764325Y472857D01*
X764325Y474169D01*
X763013Y474169D01*
X764325Y466137D02*
X761701Y466137D01*
X761701Y464169D01*
X763013Y464169D01*
X761701Y464169D01*
X761701Y462201D01*
X764325Y456137D02*
X761701Y456137D01*
X761701Y452201D01*
X764325Y452201D01*
X761701Y454169D02*
X763013Y454169D01*
X761701Y446137D02*
X761701Y442201D01*
X763669Y442201D01*
X764325Y442857D01*
X764325Y445480D01*
X763669Y446137D01*
X761701Y446137D01*
X764325Y435480D02*
X763669Y436136D01*
X762357Y436136D01*
X761701Y435480D01*
X761701Y432857D01*
X762357Y432201D01*
X763669Y432201D01*
X764325Y432857D01*
X761701Y426136D02*
X761701Y422201D01*
X763669Y422201D01*
X764325Y422857D01*
X764325Y423513D01*
X763669Y424169D01*
X761701Y424169D01*
X763669Y424169D01*
X764325Y424825D01*
X764325Y425481D01*
X763669Y426136D01*
X761701Y426136D01*
X761701Y412201D02*
X761701Y414825D01*
X763013Y416137D01*
X764325Y414825D01*
X764325Y412201D01*
X764325Y414169D01*
X761701Y414169D01*
M02*
